<?xml version="1.0" encoding="utf-8"?>
<!-- Generator: Adobe Illustrator 26.0.0, SVG Export Plug-In . SVG Version: 6.00 Build 0)  -->
<svg version="1.1" id="Capa_1" xmlns="http://www.w3.org/2000/svg" xmlns:xlink="http://www.w3.org/1999/xlink" x="0px" y="0px"
	 viewBox="0 0 300 1920" style="enable-background:new 0 0 300 1920;" xml:space="preserve">
<style type="text/css">
	.st0{clip-path:url(#SVGID_00000065782370270958622210000003398246116303750035_);}
	.st1{fill:#0E1213;}
</style>
<g>
	<defs>
		<rect id="SVGID_1_" y="0" width="300" height="1920"/>
	</defs>
	<clipPath id="SVGID_00000062173158956788554570000011506612572562231723_">
		<use xlink:href="#SVGID_1_"  style="overflow:visible;"/>
	</clipPath>
	<g style="clip-path:url(#SVGID_00000062173158956788554570000011506612572562231723_);">
		<path class="st1" d="M201.4,1274.3c5.9-10.6,13.4-18.4,22.6-23.3c9.2-4.9,20.3-7.4,33.2-7.4c24.3,0,42.1,8.5,53.5,25.4
			c11.4,17,17.1,39,17.1,66.1v95c0,1.7-0.5,2.9-1.4,3.9c-0.9,0.9-2.2,1.4-3.9,1.4H85.8c-1.6,0-2.9-0.5-3.9-1.4
			c-0.9-0.9-1.4-2.2-1.4-3.9v-91.9c0-30.1,5.4-52.8,16.1-68c10.7-15.2,28.7-22.8,53.9-22.8c22.4,0,38.6,9,48.8,26.9
			C199.9,1275.2,200.7,1275.2,201.4,1274.3z M139.2,1369h35.3c1.2,0,1.8-0.6,1.8-1.8v-29c0-17.2-6.5-25.8-19.4-25.8
			c-13,0-19.4,8.6-19.4,25.8v29C137.4,1368.4,138,1369,139.2,1369z M250.1,1310c-13.2,0-19.8,8.2-19.8,24.7v32.5
			c0,1.2,0.6,1.8,1.8,1.8h37.1c1.2,0,1.8-0.6,1.8-1.8v-32.2C271,1318.3,264,1310,250.1,1310z"/>
		<path class="st1" d="M319.7,1198.1c-7.3,14.7-17.7,26.1-31.1,34.1c-13.4,8-29,12-46.6,12H85.8c-1.6,0-2.9-0.5-3.9-1.4
			c-0.9-0.9-1.4-2.2-1.4-3.9v-55.8c0-1.6,0.5-2.9,1.4-3.9c0.9-0.9,2.2-1.4,3.9-1.4H242c9.7,0,17.4-2.8,23.1-8.3
			c5.8-5.5,8.7-12.9,8.7-22.1c0-8.9-2.9-16.2-8.8-21.7c-5.9-5.5-13.5-8.3-23-8.3H85.8c-1.6,0-2.9-0.5-3.9-1.4
			c-0.9-0.9-1.4-2.2-1.4-3.9v-55.8c0-1.6,0.5-2.9,1.4-3.9c0.9-0.9,2.2-1.4,3.9-1.4H242c17.7,0,33.2,4,46.6,12
			c13.4,8,23.8,19.3,31.1,33.9c7.3,14.6,11,31.4,11,50.5S327,1183.4,319.7,1198.1z"/>
		<path class="st1" d="M326.4,1053.5c-0.9,0.9-2.2,1.4-3.9,1.4h-51.2c-2.4,0-4.5-0.8-6.4-2.5L139.5,949.6c-0.5-0.5-0.9-0.6-1.4-0.4
			c-0.5,0.2-0.7,0.7-0.7,1.4v98.9c0,1.7-0.5,2.9-1.4,3.9c-0.9,0.9-2.2,1.4-3.9,1.4H85.8c-1.6,0-2.9-0.5-3.9-1.4
			c-0.9-0.9-1.4-2.2-1.4-3.9v-170c0-1.6,0.5-2.9,1.4-3.9c0.9-0.9,2.2-1.4,3.9-1.4h50.9c2.8,0,5.1,0.8,6.7,2.5l125.4,103.5
			c0.5,0.5,0.9,0.6,1.4,0.4c0.5-0.2,0.7-0.7,0.7-1.4v-99.6c0-1.6,0.5-2.9,1.4-3.9c0.9-0.9,2.2-1.4,3.9-1.4h46.3
			c1.7,0,2.9,0.5,3.9,1.4c0.9,0.9,1.4,2.2,1.4,3.9v170C327.9,1051.2,327.4,1052.5,326.4,1053.5z"/>
		<path class="st1" d="M320.3,824.7c-7.9,15-19,26.6-33.2,34.8c-14.2,8.2-30.8,12.4-49.6,12.4H171c-18.4,0-34.6-4.1-48.8-12.4
			c-14.1-8.2-25.1-19.8-32.9-34.8c-7.8-15-11.7-32.2-11.7-51.8c0-19.8,3.9-37.2,11.7-52.1c7.8-15,18.7-26.6,32.9-34.8
			c14.1-8.2,30.4-12.4,48.8-12.4h66.4c18.8,0,35.4,4.1,49.6,12.4c14.3,8.2,25.3,19.8,33.2,34.8c7.9,15,11.8,32.3,11.8,52.1
			C332.1,792.5,328.1,809.7,320.3,824.7z M265.5,749.1c-6.5-6-15.1-9-26-9h-69.3c-10.8,0-19.5,3-26,9c-6.5,6-9.7,14-9.7,23.8
			c0,9.7,3.2,17.5,9.7,23.5c6.5,6,15.1,9,26,9h69.3c10.8,0,19.5-3,26-9c6.5-6,9.7-13.8,9.7-23.5C275.2,763,272,755.1,265.5,749.1z"
			/>
		<path class="st1" d="M321,632.3c-6.5,14.8-15.7,26.3-27.7,34.5c-12,8.1-25.9,12.2-41.7,12.2h-4.9c-1.6,0-2.9-0.5-3.9-1.4
			c-0.9-0.9-1.4-2.2-1.4-3.9v-54.8c0-1.6,0.5-2.9,1.4-3.9c0.9-0.9,2.2-1.4,3.9-1.4h2.1c6.6,0,12.4-3.5,17.5-10.4
			c5.1-6.9,7.6-16.2,7.6-27.7c0-8.7-1.8-15-5.5-18.7c-3.6-3.8-7.7-5.7-12.2-5.7c-5.2,0-9.1,2.4-11.7,7.1c-2.6,4.7-5.8,13.3-9.5,25.8
			l-2.8,10.2c-7.1,23.3-16.5,42.9-28.3,58.7c-11.8,15.8-28.9,23.7-51.2,23.7c-14.8,0-28-4-39.4-12c-11.4-8-20.2-19-26.3-33
			c-6.1-14-9.2-29.7-9.2-47.2c0-18.4,3.4-35,10.2-50c6.8-15,16.5-26.7,29-35.3c12.5-8.6,26.7-12.9,42.8-12.9h3.2
			c1.7,0,2.9,0.5,3.9,1.4c0.9,0.9,1.4,2.2,1.4,3.9v54.8c0,1.7-0.5,2.9-1.4,3.9c-0.9,0.9-2.2,1.4-3.9,1.4h-0.4
			c-7.1,0-13.5,3.2-19.3,9.5c-5.8,6.4-8.7,15-8.7,25.8c0,7.5,1.5,13.5,4.6,17.8c3.1,4.4,7.3,6.5,12.7,6.5c4.2,0,7.8-1.6,10.8-4.8
			c2.9-3.2,5.8-8.1,8.5-14.7c2.7-6.6,6.2-16.7,10.4-30.4c0.7-1.9,3.2-10.2,7.6-24.9c4.4-14.7,12.3-27,23.7-36.9
			c11.4-9.9,25.3-14.8,41.5-14.8c15.8,0,29.4,4,40.8,12c11.4,8,20.2,19.2,26.3,33.6c6.1,14.4,9.2,31.1,9.2,50.2
			C330.7,600.1,327.4,617.4,321,632.3z"/>
	</g>
</g>
</svg>
