<?xml version="1.0" encoding="utf-8"?>
<!-- Generator: Adobe Illustrator 26.0.0, SVG Export Plug-In . SVG Version: 6.00 Build 0)  -->
<svg version="1.1" id="Capa_1" xmlns="http://www.w3.org/2000/svg" xmlns:xlink="http://www.w3.org/1999/xlink" x="0px" y="0px"
	 viewBox="0 0 300 1920" style="enable-background:new 0 0 300 1920;" xml:space="preserve">
<style type="text/css">
	.st0{clip-path:url(#SVGID_00000071545246981280344810000009672665379501555389_);}
	.st1{fill:#0E1213;}
</style>
<g>
	<defs>
		<rect id="SVGID_1_" y="0" width="300" height="1920"/>
	</defs>
	<clipPath id="SVGID_00000176742651125951717850000014492587516484355502_">
		<use xlink:href="#SVGID_1_"  style="overflow:visible;"/>
	</clipPath>
	<g style="clip-path:url(#SVGID_00000176742651125951717850000014492587516484355502_);">
		<path class="st1" d="M90.6,1767c6.7-12.7,16.3-22.6,28.6-29.5c12.4-6.9,26.6-10.4,42.6-10.4c15.8,0,29.7,3.7,41.7,11
			c12,7.3,21.3,17.6,27.9,30.7c6.6,13.2,9.9,28.4,9.9,45.6v37.5c0,1.2,0.6,1.8,1.8,1.8h79.5c1.7,0,2.9,0.5,3.9,1.4
			c0.9,0.9,1.4,2.2,1.4,3.9v55.8c0,1.7-0.5,2.9-1.4,3.9c-0.9,0.9-2.2,1.4-3.9,1.4H85.8c-1.6,0-2.9-0.5-3.9-1.4
			c-0.9-0.9-1.4-2.2-1.4-3.9v-103.5C80.5,1794.4,83.9,1779.7,90.6,1767z M181.4,1801.1c-4.6-5.3-10.7-8-18.2-8c-7.8,0-14,2.7-18.7,8
			c-4.7,5.3-7.1,12.3-7.1,21v29.7c0,1.2,0.6,1.8,1.8,1.8h47.3c1.2,0,1.8-0.6,1.8-1.8v-29.7C188.3,1813.4,186,1806.4,181.4,1801.1z"
			/>
		<path class="st1" d="M323.3,1599.9l-27.6,7.8c-0.9,0.5-1.4,1.1-1.4,1.8v74.9c0,0.7,0.5,1.3,1.4,1.8l27.6,7.8
			c3.1,0.7,4.6,2.7,4.6,6v60.4c0,4.2-2,5.8-6,4.6l-237.1-74.6c-2.8-0.9-4.2-2.9-4.2-6v-74.9c0-3.1,1.4-5.1,4.2-6l237.1-74.6
			c0.5-0.2,1.2-0.4,2.1-0.4c2.6,0,3.9,1.7,3.9,4.9v60.4C327.9,1597.2,326.3,1599.2,323.3,1599.9z M243.4,1669.1V1625
			c0-1.4-0.7-1.9-2.1-1.4l-79.1,22.6c-0.7,0.2-1.1,0.6-1.1,1.1c0,0.5,0.4,0.8,1.1,1.1l79.1,22.3
			C242.7,1670.8,243.4,1670.3,243.4,1669.1z"/>
		<path class="st1" d="M81.9,1398.8c-0.9-0.9-1.4-2.2-1.4-3.9v-55.8c0-1.6,0.5-2.9,1.4-3.9c0.9-0.9,2.2-1.4,3.9-1.4h236.7
			c1.7,0,2.9,0.5,3.9,1.4c0.9,0.9,1.4,2.2,1.4,3.9v53.4c0,2.8-1.2,4.9-3.5,6.4l-120.1,72.1c-0.7,0.5-1,0.9-0.9,1.4
			c0.1,0.5,0.7,0.7,1.6,0.7l117.7-0.7c1.7,0,2.9,0.5,3.9,1.4c0.9,0.9,1.4,2.2,1.4,3.9v55.8c0,1.7-0.5,2.9-1.4,3.9
			c-0.9,0.9-2.2,1.4-3.9,1.4H85.8c-1.6,0-2.9-0.5-3.9-1.4c-0.9-0.9-1.4-2.2-1.4-3.9v-53.4c0-2.8,1.2-4.9,3.5-6.4l120.1-71.7
			c0.7-0.5,1-0.9,0.9-1.4c-0.1-0.5-0.6-0.7-1.6-0.7l-117.7,0.4C84.2,1400.2,82.9,1399.8,81.9,1398.8z"/>
		<path class="st1" d="M81.9,1142.3c0.9-0.9,2.2-1.4,3.9-1.4h46.6c1.7,0,2.9,0.5,3.9,1.4c0.9,0.9,1.4,2.2,1.4,3.9v59.4
			c0,1.2,0.6,1.8,1.8,1.8h183c1.7,0,2.9,0.5,3.9,1.4c0.9,0.9,1.4,2.2,1.4,3.9v55.8c0,1.7-0.5,2.9-1.4,3.9c-0.9,0.9-2.2,1.4-3.9,1.4
			h-183c-1.2,0-1.8,0.6-1.8,1.8v57.6c0,1.7-0.5,2.9-1.4,3.9c-0.9,0.9-2.2,1.4-3.9,1.4H85.8c-1.6,0-2.9-0.5-3.9-1.4
			c-0.9-0.9-1.4-2.2-1.4-3.9v-186.9C80.5,1144.6,81,1143.3,81.9,1142.3z"/>
		<path class="st1" d="M323.3,1010.9l-27.6,7.8c-0.9,0.5-1.4,1.1-1.4,1.8v74.9c0,0.7,0.5,1.3,1.4,1.8l27.6,7.8
			c3.1,0.7,4.6,2.7,4.6,6v60.4c0,4.2-2,5.8-6,4.6l-237.1-74.6c-2.8-0.9-4.2-2.9-4.2-6v-74.9c0-3.1,1.4-5.1,4.2-6l237.1-74.6
			c0.5-0.2,1.2-0.4,2.1-0.4c2.6,0,3.9,1.7,3.9,4.9v60.4C327.9,1008.2,326.3,1010.2,323.3,1010.9z M243.4,1080.1V1036
			c0-1.4-0.7-1.9-2.1-1.4l-79.1,22.6c-0.7,0.2-1.1,0.6-1.1,1.1c0,0.5,0.4,0.8,1.1,1.1l79.1,22.3
			C242.7,1081.8,243.4,1081.3,243.4,1080.1z"/>
		<path class="st1" d="M326.4,948.3c-0.9,0.9-2.2,1.4-3.9,1.4H85.8c-1.6,0-2.9-0.5-3.9-1.4c-0.9-0.9-1.4-2.2-1.4-3.9v-55.8
			c0-1.6,0.5-2.9,1.4-3.9c0.9-0.9,2.2-1.4,3.9-1.4h183.4c1.2,0,1.8-0.6,1.8-1.8V772.4c0-1.6,0.5-2.9,1.4-3.9
			c0.9-0.9,2.2-1.4,3.9-1.4h46.3c1.7,0,2.9,0.5,3.9,1.4c0.9,0.9,1.4,2.2,1.4,3.9v172.1C327.9,946.1,327.4,947.4,326.4,948.3z"/>
		<path class="st1" d="M320.3,724.5c-7.9,15-19,26.6-33.2,34.8c-14.2,8.2-30.8,12.4-49.6,12.4H171c-18.4,0-34.6-4.1-48.8-12.4
			c-14.1-8.2-25.1-19.8-32.9-34.8c-7.8-15-11.7-32.2-11.7-51.8c0-19.8,3.9-37.2,11.7-52.1c7.8-15,18.7-26.6,32.9-34.8
			c14.1-8.2,30.4-12.4,48.8-12.4h66.4c18.8,0,35.4,4.1,49.6,12.4c14.3,8.2,25.3,19.8,33.2,34.8c7.9,15,11.8,32.3,11.8,52.1
			C332.1,692.3,328.1,709.5,320.3,724.5z M265.5,648.9c-6.5-6-15.1-9-26-9h-69.3c-10.8,0-19.5,3-26,9c-6.5,6-9.7,14-9.7,23.8
			c0,9.7,3.2,17.5,9.7,23.5c6.5,6,15.1,9,26,9h69.3c10.8,0,19.5-3,26-9c6.5-6,9.7-13.8,9.7-23.5C275.2,662.8,272,654.9,265.5,648.9z
			"/>
		<path class="st1" d="M81.9,433.9c-0.9-0.9-1.4-2.2-1.4-3.9v-55.8c0-1.6,0.5-2.9,1.4-3.9c0.9-0.9,2.2-1.4,3.9-1.4h236.7
			c1.7,0,2.9,0.5,3.9,1.4c0.9,0.9,1.4,2.2,1.4,3.9v53.4c0,2.8-1.2,4.9-3.5,6.4L204.2,506c-0.7,0.5-1,0.9-0.9,1.4
			c0.1,0.5,0.7,0.7,1.6,0.7l117.7-0.7c1.7,0,2.9,0.5,3.9,1.4c0.9,0.9,1.4,2.2,1.4,3.9v55.8c0,1.7-0.5,2.9-1.4,3.9
			c-0.9,0.9-2.2,1.4-3.9,1.4H85.8c-1.6,0-2.9-0.5-3.9-1.4c-0.9-0.9-1.4-2.2-1.4-3.9v-53.4c0-2.8,1.2-4.9,3.5-6.4l120.1-71.7
			c0.7-0.5,1-0.9,0.9-1.4c-0.1-0.5-0.6-0.7-1.6-0.7l-117.7,0.4C84.2,435.3,82.9,434.8,81.9,433.9z"/>
		<path class="st1" d="M136,181.3c0.9,0.9,1.4,2.2,1.4,3.9v105.6c0,1.2,0.6,1.8,1.8,1.8h33.2c1.2,0,1.8-0.6,1.8-1.8v-65.4
			c0-1.6,0.5-2.9,1.4-3.9c0.9-0.9,2.2-1.4,3.9-1.4h45.9c1.7,0,2.9,0.5,3.9,1.4c0.9,0.9,1.4,2.2,1.4,3.9v65.4c0,1.2,0.6,1.8,1.8,1.8
			h36.7c1.2,0,1.8-0.6,1.8-1.8V185.1c0-1.6,0.5-2.9,1.4-3.9c0.9-0.9,2.2-1.4,3.9-1.4h46.3c1.7,0,2.9,0.5,3.9,1.4
			c0.9,0.9,1.4,2.2,1.4,3.9v168.5c0,1.7-0.5,2.9-1.4,3.9c-0.9,0.9-2.2,1.4-3.9,1.4H85.8c-1.6,0-2.9-0.5-3.9-1.4
			c-0.9-0.9-1.4-2.2-1.4-3.9V185.1c0-1.6,0.5-2.9,1.4-3.9c0.9-0.9,2.2-1.4,3.9-1.4h46.3C133.8,179.8,135.1,180.3,136,181.3z"/>
		<path class="st1" d="M321,147.7c-6.5,14.8-15.7,26.3-27.7,34.5c-12,8.1-25.9,12.2-41.7,12.2h-4.9c-1.6,0-2.9-0.5-3.9-1.4
			c-0.9-0.9-1.4-2.2-1.4-3.9v-54.8c0-1.6,0.5-2.9,1.4-3.9c0.9-0.9,2.2-1.4,3.9-1.4h2.1c6.6,0,12.4-3.5,17.5-10.4
			c5.1-6.9,7.6-16.2,7.6-27.7c0-8.7-1.8-15-5.5-18.7c-3.6-3.8-7.7-5.7-12.2-5.7c-5.2,0-9.1,2.4-11.7,7.1c-2.6,4.7-5.8,13.3-9.5,25.8
			l-2.8,10.2c-7.1,23.3-16.5,42.9-28.3,58.7c-11.8,15.8-28.9,23.7-51.2,23.7c-14.8,0-28-4-39.4-12c-11.4-8-20.2-19-26.3-33
			c-6.1-14-9.2-29.7-9.2-47.2c0-18.4,3.4-35,10.2-50c6.8-15,16.5-26.7,29-35.3c12.5-8.6,26.7-12.9,42.8-12.9h3.2
			c1.7,0,2.9,0.5,3.9,1.4c0.9,0.9,1.4,2.2,1.4,3.9v54.8c0,1.7-0.5,2.9-1.4,3.9c-0.9,0.9-2.2,1.4-3.9,1.4h-0.4
			c-7.1,0-13.5,3.2-19.3,9.5c-5.8,6.4-8.7,15-8.7,25.8c0,7.5,1.5,13.5,4.6,17.8c3.1,4.4,7.3,6.5,12.7,6.5c4.2,0,7.8-1.6,10.8-4.8
			c2.9-3.2,5.8-8.1,8.5-14.7c2.7-6.6,6.2-16.7,10.4-30.4c0.7-1.9,3.2-10.2,7.6-24.9c4.4-14.7,12.3-27,23.7-36.9
			C224.3,4.9,238.1,0,254.4,0c15.8,0,29.4,4,40.8,12c11.4,8,20.2,19.2,26.3,33.6c6.1,14.4,9.2,31.1,9.2,50.2
			C330.7,115.5,327.4,132.9,321,147.7z"/>
	</g>
</g>
</svg>
