<?xml version="1.0" encoding="utf-8"?>
<!-- Generator: Adobe Illustrator 26.0.0, SVG Export Plug-In . SVG Version: 6.00 Build 0)  -->
<svg version="1.1" id="Capa_1" xmlns="http://www.w3.org/2000/svg" xmlns:xlink="http://www.w3.org/1999/xlink" x="0px" y="0px"
	 viewBox="0 0 300 1920" style="enable-background:new 0 0 300 1920;" xml:space="preserve">
<style type="text/css">
	.st0{clip-path:url(#SVGID_00000152235783745601822170000005185815291718998443_);}
	.st1{fill:#0E1213;}
</style>
<g>
	<defs>
		<rect id="SVGID_1_" y="0" width="300" height="1920"/>
	</defs>
	<clipPath id="SVGID_00000106839754277168799980000014728767164440887211_">
		<use xlink:href="#SVGID_1_"  style="overflow:visible;"/>
	</clipPath>
	<g style="clip-path:url(#SVGID_00000106839754277168799980000014728767164440887211_);">
		<path class="st1" d="M325.4,1518.6l-89.7,38.9c-0.9,0.5-1.4,1.2-1.4,2.1v14.8c0,1.2,0.6,1.8,1.8,1.8h88c1.7,0,2.9,0.5,3.9,1.4
			c0.9,0.9,1.4,2.2,1.4,3.9v55.8c0,1.7-0.5,2.9-1.4,3.9c-0.9,0.9-2.2,1.4-3.9,1.4H87.2c-1.6,0-2.9-0.5-3.9-1.4
			c-0.9-0.9-1.4-2.2-1.4-3.9v-107.1c0-16,3.3-30.1,9.9-42.2c6.6-12.1,15.8-21.6,27.7-28.3c11.9-6.7,25.6-10.1,41.2-10.1
			c15.5,0,29.1,3.8,40.8,11.5c11.7,7.7,20.2,18.2,25.6,31.6c0.5,1.2,1.3,1.5,2.5,1.1l93.3-44.9c1.4-0.5,2.2-0.7,2.5-0.7
			c1.2,0,2.1,0.5,2.8,1.4c0.7,0.9,1.1,2.1,1.1,3.5v59.4C329.3,1515.7,328,1517.7,325.4,1518.6z M140.6,1576.2h41.3
			c1.2,0,1.8-0.6,1.8-1.8v-33.2c0-7.5-2.1-13.7-6.2-18.4c-4.1-4.7-9.5-7.1-16.1-7.1c-6.8,0-12.3,2.4-16.4,7.1
			c-4.1,4.7-6.2,10.8-6.2,18.4v33.2C138.8,1575.6,139.4,1576.2,140.6,1576.2z"/>
		<path class="st1" d="M137.4,1265.3c0.9,0.9,1.4,2.2,1.4,3.9v105.6c0,1.2,0.6,1.8,1.8,1.8h33.2c1.2,0,1.8-0.6,1.8-1.8v-65.4
			c0-1.6,0.5-2.9,1.4-3.9c0.9-0.9,2.2-1.4,3.9-1.4h45.9c1.7,0,2.9,0.5,3.9,1.4c0.9,0.9,1.4,2.2,1.4,3.9v65.4c0,1.2,0.6,1.8,1.8,1.8
			h36.7c1.2,0,1.8-0.6,1.8-1.8v-105.6c0-1.6,0.5-2.9,1.4-3.9c0.9-0.9,2.2-1.4,3.9-1.4H324c1.7,0,2.9,0.5,3.9,1.4
			c0.9,0.9,1.4,2.2,1.4,3.9v168.5c0,1.7-0.5,2.9-1.4,3.9c-0.9,0.9-2.2,1.4-3.9,1.4H87.2c-1.6,0-2.9-0.5-3.9-1.4
			c-0.9-0.9-1.4-2.2-1.4-3.9v-168.5c0-1.6,0.5-2.9,1.4-3.9c0.9-0.9,2.2-1.4,3.9-1.4h46.3C135.2,1263.9,136.5,1264.3,137.4,1265.3z"
			/>
		<path class="st1" d="M81.9,1109.1V1054c0-1.6,0.5-2.9,1.4-3.9c0.9-0.9,2.2-1.4,3.9-1.4H324c1.7,0,2.9,0.5,3.9,1.4
			c0.9,0.9,1.4,2.2,1.4,3.9v55.8c0,1.7-0.5,2.9-1.4,3.9c-0.9,0.9-2.2,1.4-3.9,1.4H195.7c-0.9,0-1.5,0.2-1.6,0.7
			c-0.1,0.5,0.2,0.9,0.9,1.4l39.2,24c2.4,1.4,3.5,3.5,3.5,6.4v26.9c0,2.8-1.2,4.9-3.5,6.4l-39.2,24c-0.7,0.5-1,0.9-0.9,1.4
			c0.1,0.5,0.7,0.7,1.6,0.7H324c1.7,0,2.9,0.5,3.9,1.4c0.9,0.9,1.4,2.2,1.4,3.9v55.8c0,1.7-0.5,2.9-1.4,3.9
			c-0.9,0.9-2.2,1.4-3.9,1.4H87.2c-1.6,0-2.9-0.5-3.9-1.4c-0.9-0.9-1.4-2.2-1.4-3.9V1213c0-2.8,1.2-4.9,3.5-6.4l71.7-44.5
			c1.4-0.7,1.4-1.4,0-2.1l-71.7-44.5C83.1,1114.1,81.9,1111.9,81.9,1109.1z"/>
		<path class="st1" d="M137.4,861.1c0.9,0.9,1.4,2.2,1.4,3.9v105.6c0,1.2,0.6,1.8,1.8,1.8h33.2c1.2,0,1.8-0.6,1.8-1.8v-65.4
			c0-1.6,0.5-2.9,1.4-3.9c0.9-0.9,2.2-1.4,3.9-1.4h45.9c1.7,0,2.9,0.5,3.9,1.4c0.9,0.9,1.4,2.2,1.4,3.9v65.4c0,1.2,0.6,1.8,1.8,1.8
			h36.7c1.2,0,1.8-0.6,1.8-1.8V865c0-1.6,0.5-2.9,1.4-3.9c0.9-0.9,2.2-1.4,3.9-1.4H324c1.7,0,2.9,0.5,3.9,1.4
			c0.9,0.9,1.4,2.2,1.4,3.9v168.5c0,1.7-0.5,2.9-1.4,3.9c-0.9,0.9-2.2,1.4-3.9,1.4H87.2c-1.6,0-2.9-0.5-3.9-1.4
			c-0.9-0.9-1.4-2.2-1.4-3.9V865c0-1.6,0.5-2.9,1.4-3.9c0.9-0.9,2.2-1.4,3.9-1.4h46.3C135.2,859.7,136.5,860.1,137.4,861.1z"/>
		<path class="st1" d="M325.4,738.1L235.6,777c-0.9,0.5-1.4,1.2-1.4,2.1v14.8c0,1.2,0.6,1.8,1.8,1.8h88c1.7,0,2.9,0.5,3.9,1.4
			c0.9,0.9,1.4,2.2,1.4,3.9v55.8c0,1.7-0.5,2.9-1.4,3.9c-0.9,0.9-2.2,1.4-3.9,1.4H87.2c-1.6,0-2.9-0.5-3.9-1.4
			c-0.9-0.9-1.4-2.2-1.4-3.9V749.8c0-16,3.3-30.1,9.9-42.2c6.6-12.1,15.8-21.6,27.7-28.3c11.9-6.7,25.6-10.1,41.2-10.1
			c15.5,0,29.1,3.8,40.8,11.5c11.7,7.7,20.2,18.2,25.6,31.6c0.5,1.2,1.3,1.5,2.5,1.1l93.3-44.9c1.4-0.5,2.2-0.7,2.5-0.7
			c1.2,0,2.1,0.5,2.8,1.4c0.7,0.9,1.1,2.1,1.1,3.5v59.4C329.3,735.2,328,737.2,325.4,738.1z M140.6,795.7h41.3
			c1.2,0,1.8-0.6,1.8-1.8v-33.2c0-7.5-2.1-13.7-6.2-18.4c-4.1-4.7-9.5-7.1-16.1-7.1c-6.8,0-12.3,2.4-16.4,7.1
			c-4.1,4.7-6.2,10.8-6.2,18.4v33.2C138.8,795.1,139.4,795.7,140.6,795.7z"/>
		<path class="st1" d="M324.7,517.3l-27.6,7.8c-0.9,0.5-1.4,1.1-1.4,1.8v74.9c0,0.7,0.5,1.3,1.4,1.8l27.6,7.8c3.1,0.7,4.6,2.7,4.6,6
			v60.4c0,4.2-2,5.8-6,4.6L86.2,607.7c-2.8-0.9-4.2-2.9-4.2-6v-74.9c0-3.1,1.4-5.1,4.2-6l237.1-74.6c0.5-0.2,1.2-0.4,2.1-0.4
			c2.6,0,3.9,1.7,3.9,4.9v60.4C329.3,514.6,327.7,516.6,324.7,517.3z M244.8,586.5v-44.2c0-1.4-0.7-1.9-2.1-1.4l-79.1,22.6
			c-0.7,0.2-1.1,0.6-1.1,1.1c0,0.5,0.4,0.8,1.1,1.1l79.1,22.3C244.1,588.2,244.8,587.7,244.8,586.5z"/>
		<path class="st1" d="M322.4,425.1c-6.5,14.8-15.7,26.3-27.7,34.5c-12,8.1-25.9,12.2-41.7,12.2H248c-1.6,0-2.9-0.5-3.9-1.4
			c-0.9-0.9-1.4-2.2-1.4-3.9v-54.8c0-1.6,0.5-2.9,1.4-3.9c0.9-0.9,2.2-1.4,3.9-1.4h2.1c6.6,0,12.4-3.5,17.5-10.4
			c5.1-6.9,7.6-16.2,7.6-27.7c0-8.7-1.8-15-5.5-18.7c-3.6-3.8-7.7-5.7-12.2-5.7c-5.2,0-9.1,2.4-11.7,7.1c-2.6,4.7-5.8,13.3-9.5,25.8
			l-2.8,10.2c-7.1,23.3-16.5,42.9-28.3,58.7c-11.8,15.8-28.9,23.7-51.2,23.7c-14.8,0-28-4-39.4-12c-11.4-8-20.2-19-26.3-33
			c-6.1-14-9.2-29.7-9.2-47.2c0-18.4,3.4-35,10.2-50c6.8-15,16.5-26.7,29-35.3c12.5-8.6,26.7-12.9,42.8-12.9h3.2
			c1.7,0,2.9,0.5,3.9,1.4c0.9,0.9,1.4,2.2,1.4,3.9v54.8c0,1.7-0.5,2.9-1.4,3.9c-0.9,0.9-2.2,1.4-3.9,1.4h-0.4
			c-7.1,0-13.5,3.2-19.3,9.5c-5.8,6.4-8.7,15-8.7,25.8c0,7.5,1.5,13.5,4.6,17.8c3.1,4.4,7.3,6.5,12.7,6.5c4.2,0,7.8-1.6,10.8-4.8
			c2.9-3.2,5.8-8.1,8.5-14.7c2.7-6.6,6.2-16.7,10.4-30.4c0.7-1.9,3.2-10.2,7.6-24.9c4.4-14.7,12.3-27,23.7-36.9
			c11.4-9.9,25.3-14.8,41.5-14.8c15.8,0,29.4,4,40.8,12c11.4,8,20.2,19.2,26.3,33.6c6.1,14.4,9.2,31.1,9.2,50.2
			C332.1,392.9,328.9,410.2,322.4,425.1z"/>
	</g>
</g>
</svg>
