<?xml version="1.0" encoding="utf-8"?>
<!-- Generator: Adobe Illustrator 26.0.0, SVG Export Plug-In . SVG Version: 6.00 Build 0)  -->
<svg version="1.1" id="Capa_1" xmlns="http://www.w3.org/2000/svg" xmlns:xlink="http://www.w3.org/1999/xlink" x="0px" y="0px"
	 viewBox="0 0 1920 500" style="enable-background:new 0 0 1920 500;" xml:space="preserve">
<style type="text/css">
	.st0{opacity:3.000000e-02;}
	.st1{fill:#FFFFFF;}
</style>
<g class="st0">
	<path class="st1" d="M779.2,476.2c-24.1-23.7-25.8-38.9-25.1-53.6c0.7-16.3-0.6-28.2-13.3-49.8c-14.6-24.7-13.8-43.1-14.7-62.4
		c-0.9-16.4,4.3-37.7-17.8-60.5c-22-22.9-66.2-33.3-99.7-39.3c-38.9-7.9-87.7-9-106.9-27.2c-13.5-12.9-3.7-24.8,1.8-37.2
		c6-13.3,10.6-25.5-8.8-38.2C469.2,90.7,412.1,90,368.1,94c-43.9,2.9-83.2,11.1-87.6-4.8c-5.1-18.8,23.2-51.4,30-74.6
		c1.2-3.9,2.5-9.6,1.9-14.6h-6.8c1.9,5.7,0.3,13.1-1.1,17.8c-6.7,23.3-34.8,56.1-29.7,74.8c4.4,15.8,43.9,7,87.7,3.7
		c44-4.5,101.4-4.2,126.9,12.7c19.4,12.5,14.8,24.7,8.8,38c-5.6,12.4-15.3,24.3-1.8,37.1c19.4,18.1,68,18.7,107.1,26.2
		c33,5.5,78.7,15.8,99.8,38.5c21.6,22.9,17,43.7,17.9,60.4c1,19.3,0.1,37.7,14.8,62.3c12.7,21.5,13.9,33.4,13.3,49.8
		c-0.6,14.8,1.1,29.9,25.1,53.5c8.4,8.1,18.7,16.6,30.2,25.3h2.8C796.6,491.8,787.1,483.8,779.2,476.2z"/>
	<path class="st1" d="M792.1,480c6.5,6.5,14.2,13.1,22.7,20h3c-7.8-6.4-14.8-12.6-20.9-18.6c-23.8-24-25.8-39.2-24.7-53.6
		c1.2-16,0-27.4-12.6-49.3c-14.6-25.1-13.7-43.6-14.8-63.1c-0.9-16.4,4.3-37.8-17.8-61.2c-21.7-23.1-66.3-35.4-99.5-42.7
		c-38.4-9.4-87.6-12.7-106.6-31.3c-13.3-13.3-4.5-25.5,1.8-37.5c6.8-13,10.2-25.7-8.7-39c-25.4-18.2-81.4-20.4-125.5-17.9
		c-44.1,1.5-82.8,7.9-87-8.5c-4.8-19,24.6-50.5,32-73.3c0.4-1.2,0.8-2.5,1.1-4h-6c-0.4,2.4-1,4.8-1.7,6.8
		c-7.2,22.9-36.2,54.7-31.3,73.7c4.3,16.3,43.1,9.4,87.2,7.6c44.1-2.9,100.4-1,125.8,16.9c19.3,13.3,14.6,25.5,8.7,38.8
		c-5.5,12.3-15.3,24.1-1.8,37.4c19,18.5,68.2,21.1,106.6,30.1c33.3,6.9,77.8,18.7,99.5,41.7c22.1,23.2,16.9,44.6,17.8,61
		c1,19.4,0.2,37.9,14.7,62.9c12.6,21.8,13.9,33.4,12.8,49.5C766.4,440.9,768.2,456.1,792.1,480z"/>
	<path class="st1" d="M809.5,485c4.8,4.9,10.3,9.9,16.3,15h3.1c-5.4-4.7-10.3-9.2-14.7-13.7c-23.4-24-25.6-38.9-23.8-52.8
		c2-15.4,1-25.9-11.4-47.7c-14.5-25.5-13.8-44.2-14.9-63.9c-1-16.7,4.1-38-17.9-62c-21.3-23.5-66.2-38-99.6-47
		c-38.4-11.3-87.9-17-106.6-36.1c-13.3-13.8-4.7-26.2,1.7-38.2c6.8-12.8,10.2-25.9-8.8-39.8c-25.2-18.9-80.3-22.2-124.2-20.9
		c-44,0.3-82.4,5.2-86-11.6c-3.7-17.6,22.4-44.7,32.9-66.2H350c-9.4,22.1-37.2,50.9-33.1,69.2c3.8,16.7,42.3,11.5,86.3,10.8
		c44-1.6,99.3,1.4,124.6,20.2c18.9,13.8,15.6,26.7,8.8,39.6c-6.4,12-14.9,24.3-1.7,38c18.7,19,68.2,24,106.6,34.8
		c33.3,8.5,78.1,22.4,99.5,45.7c22,23.9,16.9,45.2,17.8,61.8c1.1,19.6,0.3,38.2,14.8,63.6c12.4,21.9,13.5,32.7,11.8,48.2
		C783.9,446,786,461,809.5,485z"/>
	<path class="st1" d="M831.1,491c-22.7-23.7-25.3-38.2-22.5-51.2c3.1-14.3,2.4-23.7-9.7-45.4c-14.5-26-13.9-44.9-15.1-64.7
		c-1.1-17.2,3.3-38.1-18-62.9c-20.4-23.9-66.5-41.2-99.9-51.9c-38.8-13.4-88.5-21.8-106.8-41.6c-13.2-14.5-4.7-26.9,1.5-39
		c6.6-12.8,10.3-26.1-8.9-40.8C526.6,74,472.3,70,428.8,70.4c-43.6-0.6-81.9,3.1-84.7-14.1C341.8,40.7,362.9,19.1,376,0h-5.5
		c-12.6,19.8-35,42.8-32.2,58.9c3,17.1,41.4,13.1,85.1,13.5c43.6-0.6,98.1,3.2,123.2,22.6c19.1,14.5,15.5,27.7,8.8,40.5
		c-6.2,12-14.8,24.4-1.5,38.7c18.4,19.6,68,27.2,106.7,40c33.7,10.3,78.7,26.6,99.8,50.5c21.8,24.5,16.9,45.8,18,62.7
		c1.2,19.8,0.5,38.6,15,64.5c12.2,21.7,12.9,31.4,10.2,46.1c-2.5,13.2,0,27.9,22.9,51.7c3.3,3.4,6.9,6.8,10.7,10.3h3.2
		C837.1,496.9,834,493.9,831.1,491z"/>
	<path class="st1" d="M365.3,42.5c-3.9,16.6,11.9,23.6,77.8,22.7c43.1,0.2,96.8,4.5,121.8,24.3c19.4,15.2,15.3,28.8,8.9,41.6
		c-6.1,12.2-14.5,24.6-1.3,39.6c18.2,20.3,67.9,30.7,107.1,45.8c33.9,12.2,80,31.4,100.3,55.8c21.2,25.3,17,46.2,18.2,63.7
		c1.3,20,0.7,39.1,15.3,65.4c11.8,21.4,12.3,29.8,8.3,43.2c-4.8,15.9,7.7,34.7,29.3,55.5h3.1c-20.8-20.3-32.6-38.6-27.4-53.6
		c4.4-13,4-21-7.7-42.3c-14.6-26.4-14-45.6-15.4-65.7c-1.2-17.6,2.9-38.4-18.3-63.9c-20.2-24.6-66.3-44.5-100.4-57.3
		c-39.3-15.7-89.2-26.9-107.2-47.4c-13.2-15.2-4.8-27.7,1.2-39.9c6.3-12.8,10.6-26.5-9-41.9c-25-20-78.5-24.3-121.4-24.7
		c-66,0.7-81.5-6.5-77.2-23c2.9-10.8,15.1-26,25.7-40.3h-5.7C380.9,15,368,31.2,365.3,42.5z"/>
	<path class="st1" d="M387.3,35c-5.3,16.1,9.4,23.5,75.5,23.5c42.3,0.8,95.4,5.2,120.3,25.5c19.8,15.9,15.2,29.9,9.1,42.7
		c-5.9,12.4-14.2,24.9-1,40.7c17.9,21.1,67.9,34.4,107.6,51.9c34.7,14.5,80.7,36.2,100.8,61.4c21,26,17.2,46.8,18.5,64.7
		c1.5,20.3,1,39.6,15.6,66.4c11.5,21.1,11.7,28,6.1,39.8c-6.2,12.8,3.8,29.6,22.4,48.6h3.1c-17.8-18.4-27.1-34.6-20.5-46.6
		c6.1-11.3,5.9-17.9-5.5-38.8c-14.6-26.9-14.2-46.3-15.7-66.7c-1.3-18,2.3-38.8-18.5-65c-20.1-25.4-66.1-47.9-101-63
		c-39.9-18.2-89.9-32.3-107.8-53.6c-13.2-15.9-4.9-28.5,1-41c6-12.7,10.8-26.9-9.1-43C563.2,62,510.2,57.7,468.2,56.7
		c-66.2-0.2-80.6-7.6-74.9-23.6c3.4-9.1,13.9-21.3,24.2-33.1H412C401.5,12.5,390.5,25.4,387.3,35z"/>
	<path class="st1" d="M873.7,500h3.1c-14.7-16.3-21.4-30.2-13.9-39.3c7.7-9.6,7.9-14.3-3.2-35c-14.7-27.4-14.4-47-16-67.7
		c-1.5-18.4,1.8-39.2-18.8-66c-20.1-26.3-66-51.3-101.7-68.8c-40.3-20.6-90.7-37.7-108.4-59.9c-13.1-16.7-5-29.4,0.7-42.1
		c5.7-12.7,11.1-27.4-9.3-44.1c-24.9-20.7-77.5-25-118.5-26.4c-40.3-2.3-80.9-1-79.5-18.9c0.8-10.1,13-21,26.2-31.7h-5.2
		c-13.4,11.4-26.3,23.1-26.8,33.6c-0.9,17.9,39.3,16.4,80,18.6c41.3,1.3,93.9,5.6,118.9,26.2c20.3,16.5,15,31.1,9.2,43.8
		c-5.7,12.7-13.9,25.3-0.8,41.8c17.7,21.9,68,38.2,108.2,58.1c35.5,16.8,81.4,41.1,101.5,67.2c20.7,26.6,17.3,47.5,18.8,65.7
		c1.6,20.6,1.3,40.2,15.9,67.4c11.2,20.8,10.9,25.9,3.8,36.1C850.8,468.6,858.1,483.1,873.7,500z"/>
	<path class="st1" d="M423.5,27c-2.6,18,39.1,17.1,78.2,19.7c40.2,1.6,92.5,5.8,117.4,26.7c20.7,17.2,14.9,32.2,9.4,44.9
		c-5.6,12.9-13.6,25.7-0.5,42.9c17.6,22.8,68.3,42,108.9,64.4c36.2,19.2,82.1,46,102.2,73c20.4,27.2,17.5,48.1,19.1,66.8
		c1.8,20.9,1.5,40.7,16.3,68.4c10.9,20.4,10.7,24.2,1.5,32.2c-8.4,7-3.5,19.1,9.1,34h3.2c-11.9-14.2-16.1-25.6-7.3-31.9
		c9.8-7.3,9.9-10.8-0.9-31.2c-14.8-27.8-14.6-47.7-16.4-68.7c-1.6-18.8,1.2-39.7-19.2-67.1c-20.2-27.2-66.1-54.7-102.4-74.5
		c-40.6-23-91.5-43.1-109-66.1c-13.1-17.4-5.1-30.3,0.4-43.3c5.5-12.7,11.4-27.8-9.4-45.2C599.1,51.1,546.8,47,507,45.3
		c-38.7-2.7-80.8-2-77.8-20c1.4-8.4,11.5-17,23.3-25.3h-5C435.4,9,424.7,18.1,423.5,27z"/>
	<path class="st1" d="M444.4,21.2c-4.2,18,39.2,17.7,76.6,20.7c38.9,1.9,91,5.8,116.1,27.2c21.2,17.9,14.8,33.4,9.5,46
		c-5.4,13.2-13.3,26.2-0.2,44.1c17.5,23.6,68.7,45.9,109.5,70.5c36.7,21.4,82.7,50.6,102.9,78.5c20.2,27.8,17.6,48.7,19.4,67.8
		c1.9,21.1,1.8,41.3,16.6,69.3c10.9,20.8,9.7,21.9-0.7,28.4c-8.2,5-5.8,14.4,3.2,26.4h3.3c-8.2-11.3-9.9-20-1.6-24.2
		c11-5.9,12.2-6.6,1.3-27.4c-14.8-28.2-14.8-48.4-16.7-69.6c-1.8-19.2,0.7-40.1-19.4-68c-20.2-28.1-66.2-58-103-80
		c-40.8-25.2-92.1-48.3-109.6-72.1c-13-18.1-5.2-31.1,0.2-44.4c5.2-12.7,11.8-28.3-9.6-46.3c-25.1-21.5-77.1-25.3-115.7-27.3
		c-36.9-3-80.8-2.9-76.1-20.9c1.8-6.9,9.8-13.4,19.9-19.7h-4.7C454.7,6.8,446.1,13.9,444.4,21.2z"/>
	<path class="st1" d="M465.1,16.1c-5.9,18,39.5,18.4,75.1,21.6c37.7,2.2,89.6,5.9,114.8,27.7c21.6,18.5,14.7,34.5,9.6,47.1
		c-5.3,13.4-13.1,26.6,0,45.1c17.4,24.4,69.3,49.6,110,76.3c37,23.5,83.1,54.9,103.5,83.7c20,28.3,17.8,49.2,19.6,68.7
		c2,21.4,2.1,41.8,16.9,70.2c11.3,21.7,8.4,19.3-2.7,24.9c-7.1,3.4-6.9,10-1.8,18.7h3.5c-4.3-7.9-3.8-13.8,3.2-16.5
		c11.7-4.9,14.5-2.2,3.2-24c-14.9-28.5-15-48.9-17-70.4c-1.9-19.5,0.3-40.5-19.7-68.9c-20.4-29-66.5-61-103.6-85
		C739,208,687,182.1,669.6,157.4c-13-18.8-5.3-31.9,0-45.4c5-12.6,12-28.7-9.7-47.4c-25.2-22-77-25.6-114.4-27.9
		c-35.1-3.3-81-4-74.7-21.9c1.8-5.4,7.9-10.3,15.8-14.8h-4.4C473.5,5,467,10.3,465.1,16.1z"/>
	<path class="st1" d="M485.5,11.7c-7.4,17.9,39.9,19.3,73.8,22.8C596,37,647.6,40.6,672.9,63c21.9,19.2,14.6,35.5,9.7,48.1
		c-5.2,13.6-12.9,26.9,0.2,46.1c17.4,25.2,69.8,53.1,110.3,81.5c37.2,25.3,83.5,58.7,103.9,88.2c19.9,28.7,17.9,49.7,19.9,69.4
		c2.1,21.6,2.3,42.2,17.2,70.9c11.4,21.9,8.7,18.6-4.4,21.8c-6.5,1.5-8.3,5.3-6.4,10.9h4c-1-4.6,1.2-7.8,7.3-8.8
		c13.7-2.6,16.2,0.8,4.8-21.1c-14.9-28.8-15.1-49.4-17.3-71.1c-2-19.8,0-40.8-19.9-69.6c-20.5-29.7-66.9-63.6-104-89.3
		c-40.4-28.8-93.1-57.4-110.4-82.8c-13-19.4-5.4-32.7-0.2-46.3c4.8-12.6,12.2-29-9.8-48.4C652.6,40,601,36.4,564.6,33.8
		c-33.6-3.6-81.3-5.3-73.6-23.2c1.6-3.9,5.7-7.4,11.1-10.6h-4.3C491.8,3.5,487.2,7.4,485.5,11.7z"/>
	<path class="st1" d="M505.5,7.8c-8.5,17.9,40.1,20.5,73,24.4c35.8,3,87.1,6.6,112.6,29.7c22.1,19.8,14.5,36.4,9.8,49
		c-5.1,13.7-12.7,27.1,0.3,46.8c17.3,25.8,70.4,56.2,110.5,85.9c37.1,26.7,83.7,61.8,104.2,91.9c19.9,29,17.9,50.1,20,70
		c2.2,21.8,2.4,42.5,17.4,71.5c11.4,22.2,9.2,18.4-5.7,19.5c-4.2,0.3-6.7,1.4-7.9,3.2h8.9c1.1-0.5,2.3-0.9,3.9-1.1
		c1.3-0.2,3.5,0.4,5.8,1.1h9c1.4-3.9-5.8-14.5-8.8-20.2c-15-29-15.2-49.8-17.4-71.6c-2.1-19.9-0.1-41.1-20-70.2
		c-20.6-30.2-67.3-65.7-104.3-92.8c-39.9-30-93.2-61.1-110.5-87c-13.1-19.9-5.4-33.3-0.3-47c4.6-12.6,12.3-29.2-9.8-49.2
		C670.6,38.7,619.5,35,583.8,31.8c-32.6-4.1-81.5-7.1-72.8-25c1.2-2.5,3.5-4.8,6.6-6.9h-4.2C509.6,2.4,506.9,4.9,505.5,7.8z"/>
	<path class="st1" d="M525.2,4.5c-9.1,17.9,40.1,22.1,72.5,26.6c35.5,3.6,86.1,7.6,111.7,31.6c22.1,20.5,14.4,37.1,9.8,49.7
		c-5,13.8-12.7,27.2,0.4,47.4c17.2,26.1,71,58.9,110.4,89.4c36.7,27.7,83.7,64.3,104.3,94.6c19.9,29.2,17.9,50.5,20.1,70.4
		c2.3,21.9,2.6,42.8,17.5,71.9c1.7,3.4,5.5,9.1,7.5,13.8h3.9c-2.1-4.2-5-8.7-6.5-11.5c-14.9-29.1-15.2-50.1-17.5-72
		c-2.1-20-0.1-41.2-20.1-70.5c-20.6-30.4-67.7-67.3-104.3-95.1c-39.2-30.7-93.2-64-110.3-90.2c-13.1-20.3-5.3-33.7-0.4-47.5
		c4.6-12.7,12.3-29.2-9.8-49.9C688.8,38.9,638.4,34.8,603,31c-32.5-4.7-81.7-9.4-72.5-27.3c0.6-1.3,1.6-2.5,2.8-3.7h-4.4
		C527.2,1.4,526,2.9,525.2,4.5z"/>
	<path class="st1" d="M994.4,495.7c-14.9-29.2-15.1-49.9-17.3-71.7c-1.9-19.8,0.1-41-19.8-70.4c-20.6-30.5-67.9-68.2-104.2-96.7
		c-38.7-31.2-93-66.2-110.1-92.6c-13.1-20.7-5.3-34-0.4-47.7c4.5-12.7,12.1-29.1-9.8-50.4C707.2,41,657.4,35.9,622.1,31
		c-32.3-5.6-81-12-72-29.7c0.2-0.4,0.5-0.9,0.8-1.3h-5c-0.5,0.6-0.9,1.2-1.2,1.9c-9.1,17.8,39.8,23.7,72.2,29.1
		c35.4,4.6,85.3,9.4,111,34.3c22,21.1,14.3,37.6,9.8,50.3c-4.9,13.7-12.7,27.1,0.4,47.7c17.1,26.4,71.3,60.9,110.1,92
		c36.3,28.3,83.6,65.8,104.2,96.2c20,29.4,17.9,50.6,20,70.5c2.2,21.9,2.4,42.7,17.4,71.9c0.8,1.6,2.1,3.8,3.5,6.2h3.7
		C995.9,498.4,995,496.9,994.4,495.7z"/>
	<path class="st1" d="M564.3,0C564.3,0,564.3,0,564.3,0c-8.6,17.6,39.2,25.1,71.5,31.3C671,36.9,720.3,42.8,746,68.3
		c21.9,21.7,14.3,38.1,9.8,50.7c-4.8,13.7-12.6,27,0.5,47.9c17,26.8,71.5,63,110.1,94.6c36.2,29,83.6,67.4,104.3,98.1
		c19.8,29.3,17.7,50.1,19.3,69.7c1.8,21.4,1.8,41.7,16.6,70.6h3.8c-14-28-13.9-47.8-15.5-68.6c-1.5-19.3,0.7-40-19-69.2
		c-20.7-30.8-68.2-69.4-104.4-98.6c-38.5-31.8-93.1-68.5-110.1-95.4c-13-21-5.3-34.3-0.5-48c4.4-12.7,12-29.1-9.9-50.9
		C725.3,43.5,676.1,37.3,641,31.5C608.8,25,562,17.3,569.4,0H564.3z"/>
	<path class="st1" d="M583,0c-4.7,16.6,39.6,25.2,71.5,32.1c34.9,6.5,83.6,13.3,109.1,39.4c21.8,22.2,14.3,38.6,10,51.3
		c-4.7,13.8-12.3,27,0.7,48.3c17,27.4,71.9,65.2,110.4,97.6c36.2,29.9,84,69.2,104.7,100.2c19.4,28.9,17,49,18.1,67.8
		c1.1,19.3,0.8,37.7,12.8,63.3h3.8c-11.2-24.7-10.8-42.5-11.7-61.3c-0.9-18.6,1.5-38.4-17.7-67.1c-20.8-31.1-68.6-70.8-104.9-100.9
		c-38.4-32.6-93.5-71-110.5-98.5c-13-21.4-5.4-34.6-0.8-48.4c4.3-12.7,11.8-29.1-10-51.4c-25.5-26.3-74-33.3-108.8-40.1
		c-31.9-7.1-75.2-15.9-71.4-32.4H583z"/>
	<path class="st1" d="M602,0c-1.9,16.2,39,25.7,71,33.3c34.5,7.4,82.5,14.9,107.9,41.5c21.7,22.7,14.3,39.1,10.2,51.8
		c-4.5,13.8-12,27.1,1,48.7c17.1,28,72.5,67.6,110.9,100.9c36.4,30.8,84.5,71.3,105.4,102.7c18.8,28.2,16.1,47.2,16.5,65
		c0.4,17.2-0.3,33.5,9.1,55.9h3.8c-8.8-21.6-8-37.3-8.1-53.9c-0.2-17.5,2.6-36.2-16-64.2c-21-31.6-69.3-72.3-105.7-103.4
		c-38.5-33.5-94-73.7-111.1-101.9c-13-21.7-5.6-35-1.1-48.8c4.1-12.7,11.5-29.2-10.2-52C760.2,49.1,712.5,41.3,678,33.7
		c-32.1-7.9-72.2-17.6-70.8-33.7H602z"/>
	<path class="st1" d="M621,0c-0.2,16.2,37.7,26.5,70.3,35c34.2,8.1,81.4,16.4,106.6,43.4c21.7,23.1,14.4,39.6,10.4,52.4
		c-4.4,13.9-11.6,27.2,1.3,49.2c17.2,28.7,73.1,70.2,111.7,104.4c36.6,31.8,85.3,73.5,106.3,105.4c18,27.2,15,45,14.5,61.7
		c-0.4,15-1.6,29.2,5.6,48.7h3.8c-6.6-18.6-5.3-32.2-4.7-46.7c0.7-16.3,3.9-33.7-13.9-60.7c-21.1-32-70-74-106.6-106.1
		c-38.6-34.5-94.7-76.5-111.9-105.4c-12.9-22-5.8-35.4-1.4-49.3c4-12.8,11.2-29.3-10.5-52.5c-25.2-27.1-72.2-35.5-106.2-43.9
		c-32.9-8.7-70-19.3-70.1-35.5H621z"/>
	<path class="st1" d="M709.4,37c33.8,8.8,80.2,17.6,105.2,45c21.6,23.5,14.5,40.1,10.7,53c-4.2,14-11.2,27.4,1.7,49.7
		c17.4,29.4,73.8,72.8,112.6,107.9c36.8,32.8,86.1,75.7,107.4,108.1c17.2,26.2,13.7,42.5,12.4,57.9c-1.1,12.9-2.8,25,2.4,41.4h3.9
		c-4.6-15.6-2.8-27.1-1.5-39.4c1.6-15,5.2-31-11.7-56.8c-21.3-32.5-70.8-75.7-107.7-108.8c-38.8-35.4-95.4-79.3-112.9-108.9
		c-12.9-22.4-6-35.8-1.8-49.8c3.8-12.9,10.9-29.5-10.7-53.1c-25-27.5-71.2-36.4-104.8-45.4C680.5,28,645.8,16.6,645,0h-5.2
		C640.5,16.5,675.8,27.6,709.4,37z"/>
	<path class="st1" d="M1081.3,467.8c2.7-13.6,6.7-28.1-9.5-52.9c-21.5-33-71.6-77.3-108.8-111.4c-39-36.3-96.2-82-113.8-112.4
		c-12.9-22.7-6.2-36.2-2.3-50.4c3.6-13,10.5-29.6-11-53.7c-24.8-27.8-70.2-37.2-103.5-46.8c-35.3-10.7-68-23-68.7-40.3h-5.1
		c0.8,17.1,34,29.1,68.9,39.5c33.4,9.5,78.9,18.7,103.8,46.4c21.6,23.9,14.6,40.6,11,53.5c-4,14.2-10.8,27.6,2.1,50.2
		C862,219.9,919,265.1,958,301.2c37.1,33.9,87,77.9,108.5,110.7c16.4,25.1,12.5,40,10.1,54c-1.8,10.7-3.9,20.7-0.7,34.2h4
		C1077.2,487.4,1079.4,477.9,1081.3,467.8z"/>
	<path class="st1" d="M681.5,0c-4.2,13.1,9.2,26.8,64,42.4c33,10,77.8,19.7,102.5,47.7c21.5,24.3,14.8,41.1,11.2,54.1
		c-3.9,14.3-10.4,27.8,2.6,50.8c17.7,30.9,75.4,77.9,114.6,114.9c37.4,34.8,88,79.9,109.6,113.2c15.6,24,11.3,37.4,7.9,50
		c-2.3,8.5-4.7,16.5-3.2,27h4.2c-1-9.6,1.4-17,3.8-25c3.7-12.2,8.1-25.3-7.3-48.9c-21.7-33.4-72.4-78.7-109.9-113.8
		c-39.2-37.2-97-84.6-114.8-115.8c-13-23-6.5-36.6-2.7-50.9c3.5-13.1,10.2-29.8-11.3-54.3c-24.7-28.1-69.3-37.9-102.1-48.1
		c-54.6-15.9-68-29.9-63.9-43.3H681.5z"/>
	<path class="st1" d="M1106,500h4.5c0.5-6.6,2.9-12,5.4-17.8c4.8-10.9,9.5-22.6-5.2-45.3c-21.9-33.7-73.2-80-111-115.9
		c-39.4-38-97.8-87-115.7-118.9c-13-23.3-6.7-36.9-3-51.4c3.3-13.1,9.9-30-11.6-54.8c-24.6-28.4-68.4-38.5-100.9-49.2
		c-54.6-17-67.9-32.3-63.8-46.7h-5c-4,14.1,9.3,29,63.8,45.7c32.6,10.6,76.6,20.6,101.2,48.9c21.5,24.7,14.9,41.6,11.5,54.7
		c-3.7,14.4-10,28.1,2.9,51.3c17.9,31.7,76.1,80.3,115.5,118c37.7,35.7,88.8,81.8,110.7,115.4c14.9,23,10.2,35,5.8,46.3
		C1108.5,486.6,1106.1,492.6,1106,500z"/>
	<path class="st1" d="M717.9,0c-4.4,15.2,8.5,31.4,63.5,49.4c32.3,11.1,75.6,21.5,100.1,50.1c21.5,25,15,42,11.8,55.2
		c-3.5,14.5-9.7,28.3,3.3,51.7c18.1,32.3,76.8,82.5,116.3,120.9c37.9,36.5,89.6,83.3,111.7,117.2c14.3,22.1,9.3,32.9,3.9,43
		c-2.3,4.2-4.4,8.1-5.5,12.5h5c1.3-3.7,3.2-7,5.3-10.6c5.7-9.7,10.8-20.3-3.5-42.2c-22.1-34-74-81-111.9-117.6
		c-39.6-38.6-98.4-89.1-116.5-121.6c-13-23.5-6.9-37.3-3.4-51.9c3.2-13.2,9.6-30.2-11.8-55.3c-24.4-28.7-67.6-39.1-99.8-50.4
		c-55.4-18.4-68-35-63.4-50.5H717.9z"/>
	<path class="st1" d="M736.4,0c-5.3,16.4,6.7,34.1,63,53.6c32,11.6,74.7,22.3,99.1,51.2c21.4,25.3,15,42.4,11.9,55.7
		c-3.4,14.6-9.4,28.5,3.6,52.1c18.2,32.9,77.3,84.3,117,123.3c38.1,37.1,90.3,84.5,112.5,118.5c13.9,21.4,8.8,31.4,2.4,40.3
		c-1.3,1.8-2.5,3.5-3.6,5.3h6c0.8-1.1,1.6-2.2,2.5-3.3c22.1-28.8-45.6-90.5-114.8-158.5c-39.7-39-98.9-90.8-117.1-123.8
		c-13-23.7-7-37.6-3.6-52.2c3.1-13.3,9.4-30.3-12-55.8c-24.4-29-67-39.8-98.9-51.5c-56.8-20-68.4-38.1-62.8-54.8H736.4z"/>
	<path class="st1" d="M755.4,0c-6.8,17.6,3.7,36.8,62.1,58.2c31.8,12.1,74,23.2,98.3,52.4c21.4,25.6,15.1,42.7,12.1,56.1
		c-3.3,14.7-9.2,28.6,3.7,52.5c18.2,33.3,77.7,85.9,117.4,125.1c65.9,65.2,135.4,127.8,116,155.9h6.2
		c15.3-28.5-53.5-90.4-117.3-153.6c-39.6-39.2-99.2-92.1-117.4-125.4c-12.9-23.9-7.1-37.8-3.8-52.5c3-13.3,9.3-30.4-12.1-56.1
		c-24.3-29.3-66.4-40.4-98.2-52.7c-59.1-22-69.1-41.6-61.7-59.5H755.4z"/>
	<path class="st1" d="M780.8,0h-5.6c-9.1,18.7-1,39.5,60.4,63.2c31.6,12.7,73.5,24.2,97.8,53.7c21.3,25.9,15.1,43,12.1,56.4
		c-3.2,14.7-9.1,28.7,3.8,52.7c18.2,33.5,78,87,117.5,126.2c59,58.7,125.2,118,119.4,147.9h5.2c2.7-30.5-61.9-88.3-119.7-145.8
		c-39.5-39.2-99.3-92.8-117.4-126.3c-12.9-24-7.1-37.9-3.8-52.7c2.9-13.4,9.2-30.4-12.1-56.4c-24.2-29.5-66.1-41.3-97.7-54.1
		c-61.8-24.2-69.5-45.2-60.2-64C780.6,0.4,780.7,0.2,780.8,0z"/>
	<path class="st1" d="M801.6,0h-5.8c-0.8,1.2-1.5,2.5-2.2,3.8c-9.2,18.5-1.4,39.6,60.1,64.9c31.5,13.4,73.6,26.1,97.6,55.6
		c21.2,26,15,43,12,56.3c-3.3,14.6-9.1,28.3,3.7,52.4c18.1,33.8,77.3,87.1,117.1,126.3c56.2,55.8,115.7,109,119.3,140.7h4.3
		c-5.3-32.1-63.1-83.7-118.9-139c-39.8-39.2-98.8-92.3-116.9-126.2c-12.7-24-7-37.6-3.6-52.2c3.1-13.2,9.2-30.1-12-56.1
		c-24-29.5-66.1-42.5-97.6-56.2C797.4,44.5,789.5,23.4,798.6,5C799.5,3.3,800.5,1.6,801.6,0z"/>
	<path class="st1" d="M823.5,0h-6.1c-2.2,2.8-4.2,5.6-5.7,8.6c-8.9,18.1-0.8,39.2,60.3,66.3c31.7,14.5,73.8,28.5,97.6,58.1
		c20.9,25.9,15,42.6,11.8,55.6c-3.5,14.2-9.1,27.6,3.4,51.3c17.9,33.8,76.2,86.3,116.1,125.2c37.9,37,90.4,83.4,112.4,116.3
		c4.9,7.4,7.4,13.4,8.4,18.5h4.1c-1.1-5-3.7-10.9-8.3-17.9c-21.9-32.8-74.2-78.7-112-115.5c-39.9-38.8-97.8-91-115.7-124.7
		c-12.5-23.7-6.9-36.9-3.3-50.9c3.3-12.9,9.1-29.4-11.7-55.3c-23.7-29.6-65.8-44-97.6-58.9C816,49.1,807.8,28,816.6,10
		C818.4,6.6,820.7,3.2,823.5,0z"/>
	<path class="st1" d="M829.6,14.1c-8.5,17.5,0,38.7,60.6,67.8c32.2,15.9,74.1,31.4,97.6,61.1c20.3,25.7,14.9,41.7,11.4,54.3
		c-3.7,13.6-9.2,26.4,3,49.7c17.7,33.6,74.8,84.8,114.6,123c37.6,36.3,89.2,81,111,113.3c4.3,6.4,6.9,11.9,8.3,16.7h3.9
		c-1.5-4.8-4.1-10.3-8.3-16.5c-21.8-32-73-76.3-110.6-112.3c-39.7-38-96.4-88.8-114.1-122.3c-12.1-23.1-6.7-35.7-2.9-49.2
		c3.5-12.5,8.8-28.3-11.3-53.9c-23.4-29.7-65.3-45.7-97.7-62c-60.5-29.7-69-50.8-60.7-68.2c2.7-5.6,7.3-10.9,12.3-15.7h-6.6
		C835.9,4.4,832,9.1,829.6,14.1z"/>
	<path class="st1" d="M847.4,20.1c-7.9,17,1,38.1,61,69.2c32.8,17.4,74.5,34.5,97.8,64.4c19.6,25.3,14.8,40.5,11,52.7
		c-4,12.9-9.4,25,2.5,47.6c17.5,33.1,73.2,82.7,112.7,120c37.2,35.3,87.6,78.1,109.2,109.6c4.2,6.1,6.9,11.5,8.6,16.4h3.8
		c-1.8-5-4.6-10.4-8.8-16.5c-21.7-31.2-71.6-73.4-108.7-108.5c-39.3-37-94.7-86.1-112.1-119.1c-11.8-22.4-6.5-34.3-2.4-47
		c3.9-12,8.6-27.1-10.9-52.2c-23.1-29.9-64.8-47.4-97.8-65.3c-59.8-31.7-68.8-52.7-61.1-69.6c3.8-8.3,11.8-15.5,19.6-21.8h-7.1
		C857.7,5.9,850.9,12.6,847.4,20.1z"/>
	<path class="st1" d="M926.6,97.2c33.6,19.2,75,37.8,98,67.9c18.8,24.7,14.7,39.1,10.5,50.8c-4.3,12.1-9.6,23.3,2,45.2
		c17.2,32.6,71.5,80.3,110.5,116.3c36.8,34.2,85.6,74.8,107.2,105.4c4.4,6.3,7.4,12,9.5,17.2h3.8c-2.2-5.4-5.3-11.2-9.8-17.6
		c-21.5-30.4-70-70.3-106.6-104.2c-38.9-35.7-92.7-82.9-109.8-115.2c-11.4-21.7-6.2-32.7-1.8-44.5c4.3-11.5,8.2-25.7-10.4-50.2
		c-22.9-30.2-64.3-49.2-98-68.9c-101.9-56.9-56.1-80.6-33-99.4h-7.3C867.5,18.6,828.2,43.3,926.6,97.2z"/>
	<path class="st1" d="M944.8,105.4c34.3,20.9,75.5,41.1,98.2,71.5c18.4,24.5,13.7,36.8,10,48.7c-3.7,12-10,21.1,1.3,42.6
		c16.9,31.9,69.6,77.5,108.1,112.3c36.3,33,83.5,71.2,105,100.9c4.8,6.7,8.2,12.9,10.7,18.7h3.9c-2.6-5.9-6.1-12.3-11.1-19.2
		c-21.4-29.5-68.3-67.1-104.4-99.7c-38.4-34.4-90.7-79.4-107.5-111.1c-11.2-21.2-5-30.1-1.2-41.8c3.8-11.7,8.3-23.7-9.8-48.1
		c-22.7-30.4-63.8-51-98.3-72.4c-115-69-41.7-86.3-26.7-107.8h-6.3C898.7,20.3,833.3,39.9,944.8,105.4z"/>
	<path class="st1" d="M939.9,7.6c1.4-2.2,2.5-4.7,3-7.6h-5.1c-0.6,1.9-1.5,3.7-2.5,5.3c-14.2,22.4-87.1,36.5,27.5,108.7
		c34.9,22.7,76,44.4,98.5,75c17.5,23.8,13.6,35.2,9.5,46.5c-4.1,11.1-10.2,19.3,0.7,39.9c16.6,31.2,67.8,74.6,105.8,108
		c35.7,31.6,81.4,67.5,102.7,96.3c5.3,7.3,9.2,14,12.1,20.4h3.9c-3-6.6-7-13.5-12.5-20.9c-21.2-28.6-66.6-63.8-102.1-95.1
		c-37.8-33-88.6-75.8-105.1-106.8c-10.8-20.3-4.7-28.3-0.5-39.1c4.3-11,8-22.3-9.3-45.9c-22.5-30.6-63.5-52.7-98.6-75.9
		C853.9,43.3,925.5,30.2,939.9,7.6z"/>
	<path class="st1" d="M951.7,13.6c-14.7,23.3-83.1,33.9,29.3,108.9c35.5,24.3,76.4,47.5,98.8,78.3c16.8,23.1,13.5,33.8,9,44.3
		c-4.4,10.1-10.9,17.4,0.1,37.2c17.2,31.1,65.4,71.2,103.5,103.7c35.2,30.3,79.4,63.9,100.6,91.8c5.8,7.8,10.2,15.1,13.6,22h4
		c-3.5-7.1-7.9-14.5-13.9-22.4c-21.1-27.7-64.9-60.7-100-90.6c-38-32.1-85.8-71.7-102.9-102.6c-10.9-19.6-4.4-26.7,0.1-36.5
		c4.7-10.4,7.7-20.9-8.8-43.7c-22.3-30.8-63.3-54.4-98.9-79.1c-111.7-75.7-44.5-85.5-29.7-109c2.7-4.2,3.9-9.5,2.8-16h-4.1
		C955.3,5.4,954.1,10,951.7,13.6z"/>
	<path class="st1" d="M968.2,22c-15.1,24-79.1,31.8,30.9,109.2c35.8,25.8,76.8,50.3,99.1,81.3c16.1,22.3,13.6,32.5,8.5,42.3
		c-4.8,9.3-11.1,15.7-0.5,34.8c16.9,30.5,63.7,68.6,101.4,99.7c34.7,29,77.7,60.5,98.6,87.6c6.2,8.1,11,15.8,14.8,23.1h4
		c-3.9-7.4-8.7-15.2-15-23.3c-20.9-26.8-63.5-57.8-98.1-86.5c-37.6-30.8-84-68.4-100.9-98.7c-10.5-18.9-4.3-25.1,0.6-34.2
		c5.2-9.7,7.5-19.7-8.4-41.8c-22.2-31-63.2-55.9-99.1-82c-109.4-78-46.4-85.1-31.3-109.2c3.8-5.9,4.1-14.1-0.3-24.4H969
		C972.3,9.2,971.7,16.6,968.2,22z"/>
	<path class="st1" d="M984.8,30.4c-15.4,24.6-75.5,30.1,32.3,109.4c36,27,77.2,52.8,99.3,83.8c15.5,21.7,13.7,31.4,8.1,40.6
		c-5.1,8.5-11.2,14.2-0.9,32.7c16.7,30,62.2,66.2,99.6,96.2c34.3,27.8,76.2,57.4,96.9,83.7c6.4,8.1,11.3,15.8,15.4,23.3h4.1
		c-4.2-7.5-9.1-15.2-15.5-23.2c-20.7-26.1-62.3-55.3-96.5-82.7c-37.4-29.7-82.6-65.4-99.2-95.3c-10.2-18.3-4.2-23.8,1.1-32.2
		c5.7-9,7.3-18.7-8-40.2c-22.1-31-63.3-57.1-99.4-84.4c-107.2-79.6-48-84.7-32.6-109.4c5.8-9.2,2.4-20.4-6.2-32.7h-3
		C987.7,11.3,990.3,21.6,984.8,30.4z"/>
	<path class="st1" d="M1001.6,38.6c-15.6,25-72.5,28.9,33.3,109.5c36,27.9,77.5,54.8,99.5,85.7c15,21.1,13.8,30.6,7.8,39.2
		c-5.5,7.9-11.4,13.1-1.3,31c16.6,29.7,60.9,64.2,98.4,93.3c34.1,26.8,75.1,54.8,95.7,80.4c6.1,7.7,11.1,15.1,15.3,22.3h4.1
		c-4.2-7-9-14.3-15-21.7c-20.5-25.4-61.4-53.1-95.5-79.6c-37.5-28.8-81.5-63-98.1-92.6c-10-17.9-4.2-22.9,1.4-30.7
		c6.1-8.5,7.2-17.9-7.7-38.9c-22-30.9-63.6-58.1-99.6-86.1c-105.4-80.9-49.2-84.5-33.5-109.5c6.8-10.8,0.3-24.9-12.6-40.8h-2.9
		C1002.6,14.9,1008.2,28.2,1001.6,38.6z"/>
	<path class="st1" d="M1018.8,46.5c-15.8,25.2-70.3,28.1,34,109.6c35.8,28.3,77.8,56.2,99.7,87c14.8,20.7,13.9,30.1,7.6,38.4
		c-18.7,24.1,25.8,67.6,96.1,121.2c34.1,26,74.6,52.7,95.1,77.8c5.4,6.7,10,13.2,14,19.6h4.1c-3.8-6.1-8.2-12.2-13.3-18.6
		c-20.4-25-60.9-51.4-95-77.2c-70.1-53-115-96.8-96-120.6c6.4-8.1,7.1-17.6-7.6-38.2c-21.9-30.6-64-58.8-99.7-87.2
		c-104-81.7-49.9-84.3-34.1-109.6c7.7-12.2-2.2-29.3-19-48.7h-3C1017.4,18.4,1026.3,34.8,1018.8,46.5z"/>
	<path class="st1" d="M1041.2,55.9c8.5-13.6-4.8-33.5-25.2-55.9h-3.1c19.5,21.6,31.9,40.9,23.6,54c-15.8,25.2-69.3,27.7,34.2,109.7
		c35.5,28.4,77.8,56.8,99.6,87.2c14.7,20.5,14,30,7.7,38.1c-18.7,23.9,26,67.6,96.1,119.8c34.3,25.5,74.7,51.3,95.2,76
		c4.2,5.1,7.9,10.2,11.3,15.1h4.3c-3.1-4.5-6.5-9-10.4-13.7c-20.6-24.6-60.9-50.1-95.3-75.6c-70.4-52.1-114.5-95.4-96.4-119.7
		c6.1-8.3,6.8-17.8-7.8-38.2c-21.8-30.3-64-58.6-99.5-87C972,83.8,1025.5,81.2,1041.2,55.9z"/>
	<path class="st1" d="M1053.6,60.5c-15.2,25.4-68.9,28.7,34.5,110.7c35.4,28.3,77.1,56,98.8,86.2c14.5,20.1,13.9,30,8.5,38.7
		c-4.9,8-9.8,13.6-0.3,30.6c16.5,29.4,59.8,61.7,97.9,89.1c34.5,25.2,74.8,50.2,95.6,74.5c2.8,3.3,5.3,6.5,7.7,9.7h4.5
		c-2-2.7-4.2-5.4-6.5-8.1c-20.9-24.2-61.3-49-95.8-74c-38.2-27.3-81.5-59.5-98-88.9c-9.5-17-4.8-22.8-0.3-31c5-9,5.5-19-9-39
		c-21.7-30.1-63.2-57.5-98.5-85.8c-103.2-82-49.6-85.6-34.6-111.1c9-15.2-7.6-37.5-31-62.1h-3.1
		C1046.8,24.1,1062.5,45.7,1053.6,60.5z"/>
	<path class="st1" d="M1415.6,497.8c-21-23.6-61.9-47.8-96.6-72.5c-38.6-27-81.7-58.7-98.6-88.2c-9.6-16.7-5.9-23.7-2.7-32.7
		c3.5-9.9,3.4-20.6-11-40.4c-21.6-29.7-61.8-55.9-96.9-83.9C1007,98.5,1061,93.4,1075,67.6c9.3-17.1-10.5-41.1-36.4-67.6h-3.1
		c25.2,26,44.2,49.5,34.9,66.1c-14.3,25.7-68.2,30.3,34.8,112.1c35.2,28.1,75.8,54.7,97.4,84.5c14.4,19.8,14.3,30.3,10.3,40
		c-3.6,8.8-7.6,15.4,2,32.2c16.8,29.4,60,61.3,98.4,88.4c34.6,24.8,75.4,49.1,96.4,72.9c1.1,1.3,2.2,2.6,3.3,3.8h4.6
		C1416.9,499.3,1416.3,498.5,1415.6,497.8z"/>
	<path class="st1" d="M1055.2,5.7c30.9,30.6,38,52.7,31.6,65.4c-13,26-67.3,32.7,35.1,113.7c34.9,27.7,73.9,52.8,95.5,82.2
		c14.3,19.6,15.1,30.9,12.8,41.7c-2.1,9.8-4.8,17.8,5,34.3c17.4,29.7,60.3,60.9,99.3,87.7c33.8,23.6,73.8,46.7,95.4,69.3h4.7
		c-21.9-21.9-61-44.3-94.1-67.2c-39.2-26.7-81.9-57.7-99.5-87.5c-9.8-16.5-7.5-24.9-5.9-35c1.8-11,0.7-22.7-13.6-42.2
		c-21.5-29.3-60.1-53.9-94.9-81.5c-102.3-80.8-47.9-88.1-35.2-114.2c6.2-12.7-0.5-34.8-31.5-65.4c-2.5-2.4-4.9-4.8-7.2-7h-3.1
		C1051.3,1.9,1053.2,3.8,1055.2,5.7z"/>
	<path class="st1" d="M1071.4,10.2c31.6,30.6,37.2,52.7,31.5,65.5c-11.7,26.4-66.3,35.6,35.5,115.5c34.6,27.2,71.7,50.5,93.2,79.5
		c14.3,19.3,16.2,31.8,15.9,43.7c-0.3,10.9-1.4,20.3,8.6,36.8c18.3,30,60.5,60.4,100.3,86.9c31,21.1,67.8,41.7,90.4,61.8h4.6
		c-22.8-19.5-58.7-39.4-88.9-59.8c-40-26.5-82-56.6-100.6-86.7c-10.1-16.4-9.5-26.3-9.7-37.5c-0.2-12.2-2.5-25-16.8-44.3
		c-21.5-28.9-58-51.7-92.6-78.7c-101.6-79.6-46.8-89.7-35.5-116.1c5.5-12.8,0.3-34.9-31.5-65.5c-4.3-4.1-8.3-7.9-12.2-11.4h-3
		C1064,3.2,1067.6,6.6,1071.4,10.2z"/>
	<path class="st1" d="M1087.4,14.4c32.3,30.5,36.4,52.8,31.5,65.5c-10.3,26.6-65.2,38.9,35.8,117.5c34.3,26.7,69.3,48,90.8,76.6
		c14.4,19.2,17.6,32.9,19.3,45.9c1.6,12.1,2.2,23,12.7,39.5c19.3,30.4,60.9,59.7,101.5,86c28.2,18.6,61.8,36.8,84.8,54.6h4.6
		c-23-17.1-55.7-34.7-83.2-52.7c-40.8-26.2-82.2-55.3-101.8-85.8c-10.6-16.4-11.7-27.8-13.8-40.2c-2.3-13.4-5.8-27.4-20.3-46.5
		c-21.4-28.4-55.8-49.2-90-75.7c-100.8-78.2-45.8-91.4-35.9-118.1c4.8-13,0.8-34.9-31.5-65.5c-6.3-5.9-11.9-11-17.2-15.6h-3.1
		C1076.4,4.3,1081.7,9,1087.4,14.4z"/>
	<path class="st1" d="M1103.3,18.5c32.8,30.5,35.7,52.6,31.4,65.5c-8.9,26.7-64,42.5,36.2,119.5c34,26,66.8,45.4,88.2,73.4
		c14.6,19.1,19.2,34,22.9,48.2c3.5,13.2,6,25.6,16.9,42.1c20.4,30.7,61.2,59,102.7,85c25.6,16.3,56,32.2,78.8,47.8h4.6
		c-22.6-15-52.3-30.3-77.2-46c-41.8-25.8-82.4-53.9-103.1-84.6c-11.1-16.5-14.1-29.3-18.1-42.8c-4.3-14.4-9.2-29.6-23.9-48.8
		c-21.4-28-53.5-46.7-87.4-72.6c-99.9-76.6-44.8-93.3-36.3-120.1c4.1-12.8,1.6-35.1-31.4-65.5c-8.8-8-16.1-14.2-22.7-19.6h-2.8
		C1088.4,5.2,1095.3,11.1,1103.3,18.5z"/>
	<path class="st1" d="M1089.9,0.5c9.3,8,20,13.9,29.3,22.1c33.5,30,35,52.9,31.4,65.4c-7.6,26.7-62.6,46.1,36.6,121.5
		c33.7,25.4,64.2,42.7,85.6,70.3c14.8,19.2,20.8,35.2,26.5,50.3c5.3,14.2,9.7,28,21.2,44.6c21.5,30.9,61.6,58.2,104.1,83.7
		c23.1,14.2,50.7,28,72.9,41.6h4.7c-21.9-13-48.7-26.3-71.3-40c-42-24.9-83.6-52.7-104.4-83.3c-11.4-16.6-16.5-30.7-22.4-45.3
		c-6.2-15.4-12.6-31.7-27.5-50.9c-21.3-27.5-51.3-44.2-84.9-69.4c-99-74.8-44-95.3-36.7-122c3.4-12.5,2.3-35.5-31.4-65.4
		c-9.2-8.1-19.7-13.7-29-21.6c-0.9-0.7-1.7-1.5-2.5-2.2h-2.7C1089.5,0.2,1089.7,0.3,1089.9,0.5z"/>
	<path class="st1" d="M1347.8,383.7c-12-16.8-18.8-31.9-26.4-47.4c-7.9-16.2-15.6-33.5-30.8-52.7c-21.2-26.9-49.2-41.9-82.5-66.3
		c-98-72.9-43.3-97.3-37.1-123.7c2.8-12,2.9-36.1-31.4-65.3c-9.1-7.7-18.9-12.3-27.9-19.6c-3.8-3.1-6.9-5.9-9.7-8.5h-2.8
		c2.3,2.1,4.8,4.3,7.7,6.7c9.1,7.5,19.1,12.3,28.2,20.2c34.2,29.4,34.3,53.2,31.4,65.4c-6.5,26.5-61.3,49.9,37,123.3
		c33.3,24.6,61.9,40.1,83.1,67.2c15.1,19.3,22.5,36.3,29.9,52.3c7.1,15.3,13.6,30.1,25.4,46.8c21.6,30.6,62.7,57.7,105.4,82.1
		c21,12.4,46,24.3,67.3,36.1h4.8c-20.9-11.3-45.3-22.8-65.8-34.7C1410.6,441.1,1369.6,414.3,1347.8,383.7z"/>
	<path class="st1" d="M1151.3,31.6c34.6,28.7,33.8,53.6,31.3,65.2c-5.6,26.3-60.1,53.4,37.3,124.8c33,23.9,59.7,37.7,80.9,64.3
		c15.5,19.4,24,37.1,33.1,53.9c8.7,16,16.7,31.8,29.1,48.6c22.5,30.6,63.2,56.6,106.6,80.2c19.3,10.8,42.2,21.2,62.4,31.4h4.9
		c-20-9.8-42.3-19.8-61.2-30.3c-43.6-23.4-84.2-49.1-106.9-79.7c-12.5-16.9-20.9-32.8-30-49c-9.5-16.9-18.3-34.8-33.8-54.2
		c-21.2-26.4-47.4-39.8-80.4-63.5c-97.2-71-42.8-99-37.4-125.2c2.3-11.5,3.4-36.7-31.3-65.2c-21-17.3-30.3-20.4-42.3-32.9h-2.8
		C1121.8,11,1131.5,15.1,1151.3,31.6z"/>
	<path class="st1" d="M1167.7,36.7c35,27.9,33.4,53.9,31.3,65.1c-4.8,26-58.9,56.5,37.7,126.1c32.8,23.2,58,35.5,79.1,61.6
		c15.8,19.5,25.2,37.7,35.7,55c10.1,16.6,19.4,32.9,32.3,49.8c23.1,30.4,63.7,55.4,107.7,78.1c18,9.6,39.3,18.7,58.7,27.6h5.1
		c-19.2-8.6-40.1-17.4-57.9-26.7c-44.1-22.3-84.7-47.2-107.9-77.4c-13-16.9-22.6-33.4-33-50.1c-10.8-17.3-20.4-35.7-36.3-55.2
		c-21.1-26-45.9-38-78.7-61c-96.5-69.1-42.5-100.5-37.8-126.4c2-11,3.7-37.3-31.3-65.1c-24.9-19.7-32-18.6-47.8-38.2h-3.2
		C1136,17.4,1143.8,17.5,1167.7,36.7z"/>
	<path class="st1" d="M1184.5,42.5c35.2,27.2,33.1,54.2,31.4,64.9c-4.3,25.7-58,59.1,38.1,126.9c32.6,22.5,56.7,33.8,77.8,59.4
		c16,19.4,26.1,38,37.6,55.5c11.1,16.9,21.4,33.6,34.6,50.4c23.4,29.9,64.2,54.1,108.5,75.6c17.3,8.7,37.7,16.8,56.5,24.8h5.3
		c-18.8-7.7-39-15.6-56.2-24.2c-44.4-21.1-85.3-45.1-108.7-74.8c-13.3-16.8-23.8-33.5-35.1-50.5c-11.7-17.5-21.9-36.1-37.9-55.5
		c-21-25.5-44.9-36.5-77.5-58.9c-96-67.5-42.4-101.4-38.2-127.1c1.7-10.6,3.8-37.8-31.4-64.9c-27.9-21.5-32.2-15.9-52.8-44.2h-3.3
		C1152.3,25.8,1157.4,21.4,1184.5,42.5z"/>
	<path class="st1" d="M1271.6,241c32.5,22,56.1,32.4,77.1,57.6c16.1,19.3,26.4,37.8,38.6,55.3c11.8,17,22.7,33.6,36,50.3
		c23.4,29.3,64.7,52.7,109.1,72.8c17.3,8.2,37.6,15.6,56.4,22.9h5.6c-18.9-7.1-39.3-14.4-56.7-22.5c-44.4-19.7-85.9-42.9-109.2-72
		c-13.3-16.6-24.2-33.2-36.2-50.1c-12.3-17.5-22.6-36-38.7-55.2c-21-25.2-44.5-35.4-77-57.2c-96-66.1-42.5-101.8-38.6-127.3
		c1.6-10.4,3.9-38.2-31.4-64.7c-28.7-21.7-31.6-14.1-53.6-45c-2-0.8-2.9-1.3-4.9-2.1c8.5,11.9,12.2,18.6,28.3,30.6
		c8.6,6.4,16.4,7.7,25.3,14.5c35.3,26.6,33,54.3,31.4,64.7C1229.2,139.3,1175.7,174.6,1271.6,241z"/>
</g>
</svg>
