<?xml version="1.0" encoding="utf-8"?>
<!-- Generator: Adobe Illustrator 26.0.0, SVG Export Plug-In . SVG Version: 6.00 Build 0)  -->
<svg version="1.1" id="Capa_1" xmlns="http://www.w3.org/2000/svg" xmlns:xlink="http://www.w3.org/1999/xlink" x="0px" y="0px"
	 viewBox="0 0 300 1920" style="enable-background:new 0 0 300 1920;" xml:space="preserve">
<style type="text/css">
	.st0{clip-path:url(#SVGID_00000117647906356534771050000016427749352524004760_);}
	.st1{fill:#0E1213;}
</style>
<g>
	<defs>
		<rect id="SVGID_1_" y="0" width="300" height="1920"/>
	</defs>
	<clipPath id="SVGID_00000126304447603500746450000004175481087544735362_">
		<use xlink:href="#SVGID_1_"  style="overflow:visible;"/>
	</clipPath>
	<g style="clip-path:url(#SVGID_00000126304447603500746450000004175481087544735362_);">
		<path class="st1" d="M79.1,1153.1c0.9-0.9,2.2-1.4,3.9-1.4h46.6c1.7,0,2.9,0.5,3.9,1.4c0.9,0.9,1.4,2.2,1.4,3.9v59.4
			c0,1.2,0.6,1.8,1.8,1.8h183c1.7,0,2.9,0.5,3.9,1.4c0.9,0.9,1.4,2.2,1.4,3.9v55.8c0,1.7-0.5,2.9-1.4,3.9c-0.9,0.9-2.2,1.4-3.9,1.4
			h-183c-1.2,0-1.8,0.6-1.8,1.8v57.6c0,1.7-0.5,2.9-1.4,3.9c-0.9,0.9-2.2,1.4-3.9,1.4H83c-1.6,0-2.9-0.5-3.9-1.4
			c-0.9-0.9-1.4-2.2-1.4-3.9V1157C77.7,1155.3,78.2,1154,79.1,1153.1z"/>
		<path class="st1" d="M317.4,1117.2c-7.9,15-19,26.6-33.2,34.8c-14.2,8.2-30.8,12.4-49.6,12.4h-66.4c-18.4,0-34.6-4.1-48.8-12.4
			c-14.1-8.2-25.1-19.8-32.9-34.8c-7.8-15-11.7-32.2-11.7-51.8c0-19.8,3.9-37.2,11.7-52.1c7.8-15,18.7-26.6,32.9-34.8
			c14.1-8.2,30.4-12.4,48.8-12.4h66.4c18.8,0,35.4,4.1,49.6,12.4c14.3,8.2,25.3,19.8,33.2,34.8c7.9,15,11.8,32.3,11.8,52.1
			C329.3,1085,325.3,1102.3,317.4,1117.2z M262.7,1041.6c-6.5-6-15.1-9-26-9h-69.3c-10.8,0-19.5,3-26,9c-6.5,6-9.7,14-9.7,23.8
			c0,9.7,3.2,17.5,9.7,23.5c6.5,6,15.1,9,26,9h69.3c10.8,0,19.5-3,26-9c6.5-6,9.7-13.8,9.7-23.5
			C272.4,1055.6,269.1,1047.6,262.7,1041.6z"/>
		<path class="st1" d="M323.6,965.1c-0.9,0.9-2.2,1.4-3.9,1.4H83c-1.6,0-2.9-0.5-3.9-1.4c-0.9-0.9-1.4-2.2-1.4-3.9v-90.8
			c0-19.1,3.3-36,9.9-50.7c6.6-14.7,15.9-26.1,27.9-34.1c12-8,25.9-12,41.7-12h88.3c15.8,0,29.7,4,41.7,12c12,8,21.3,19.4,27.9,34.1
			c6.6,14.7,9.9,31.6,9.9,50.7v90.8C325,962.9,324.6,964.2,323.6,965.1z M268.1,898.3V868c0-8-3.1-14.6-9.4-19.8
			c-6.2-5.2-14.4-7.9-24.6-8.1h-65.7c-10.1,0-18.3,2.6-24.6,7.8c-6.2,5.2-9.4,12-9.4,20.5v30c0,1.2,0.6,1.8,1.8,1.8h130
			C267.6,900.1,268.1,899.5,268.1,898.3z"/>
		<path class="st1" d="M317.4,721.9c-7.9,15-19,26.6-33.2,34.8c-14.2,8.2-30.8,12.4-49.6,12.4h-66.4c-18.4,0-34.6-4.1-48.8-12.4
			c-14.1-8.2-25.1-19.8-32.9-34.8c-7.8-15-11.7-32.2-11.7-51.8c0-19.8,3.9-37.2,11.7-52.1c7.8-15,18.7-26.6,32.9-34.8
			c14.1-8.2,30.4-12.4,48.8-12.4h66.4c18.8,0,35.4,4.1,49.6,12.4c14.3,8.2,25.3,19.8,33.2,34.8c7.9,15,11.8,32.3,11.8,52.1
			C329.3,689.6,325.3,706.9,317.4,721.9z M262.7,646.2c-6.5-6-15.1-9-26-9h-69.3c-10.8,0-19.5,3-26,9c-6.5,6-9.7,14-9.7,23.8
			c0,9.7,3.2,17.5,9.7,23.5c6.5,6,15.1,9,26,9h69.3c10.8,0,19.5-3,26-9c6.5-6,9.7-13.8,9.7-23.5
			C272.4,660.2,269.1,652.2,262.7,646.2z"/>
	</g>
</g>
</svg>
