<?xml version="1.0" encoding="utf-8"?>
<!-- Generator: Adobe Illustrator 26.0.0, SVG Export Plug-In . SVG Version: 6.00 Build 0)  -->
<svg version="1.1" id="Capa_1" xmlns="http://www.w3.org/2000/svg" xmlns:xlink="http://www.w3.org/1999/xlink" x="0px" y="0px"
	 viewBox="0 0 50 10" style="enable-background:new 0 0 50 10;" xml:space="preserve">
<style type="text/css">
	.st0{fill:#FFFFFF;}
	.st1{fill:none;}
</style>
<g>
	<path class="st0" d="M18.1,3.3C18.1,3.4,18.1,3.4,18.1,3.3l-2.4,0c0,0,0,0,0,0v1.1c0,0,0,0,0,0h1.5c0,0,0,0,0.1,0c0,0,0,0,0,0.1
		v0.7c0,0,0,0,0,0.1c0,0,0,0-0.1,0h-1.5c0,0,0,0,0,0v1.1c0,0,0,0,0,0h2.3c0,0,0,0,0.1,0c0,0,0,0,0,0.1v0.7c0,0,0,0,0,0.1
		c0,0,0,0-0.1,0h-3.3c0,0,0,0-0.1,0c0,0,0,0,0-0.1V2.6c0,0,0,0,0-0.1c0,0,0,0,0.1,0h3.3c0,0,0,0,0.1,0c0,0,0,0,0,0.1L18.1,3.3
		C18.2,3.3,18.2,3.3,18.1,3.3z"/>
	<path class="st0" d="M22.7,2.5C22.7,2.5,22.7,2.5,22.7,2.5l0.9,0c0,0,0,0,0.1,0c0,0,0,0,0,0.1v4.8c0,0,0,0,0,0.1c0,0,0,0-0.1,0
		h-0.8c0,0-0.1,0-0.1-0.1l-1.8-3c0,0,0,0,0,0c0,0,0,0,0,0l0,3c0,0,0,0,0,0.1c0,0,0,0-0.1,0h-0.8c0,0,0,0-0.1,0c0,0,0,0,0-0.1V2.6
		c0,0,0,0,0-0.1c0,0,0,0,0.1,0h0.8c0,0,0.1,0,0.1,0.1l1.8,3c0,0,0,0,0,0c0,0,0,0,0,0L22.7,2.5C22.7,2.6,22.7,2.6,22.7,2.5z"/>
	<path class="st0" d="M29,2.5C29,2.6,29,2.6,29,2.5l0,0.8c0,0,0,0,0,0.1c0,0,0,0-0.1,0h-1.3c0,0,0,0,0,0v4c0,0,0,0,0,0.1
		c0,0,0,0-0.1,0h-0.8c0,0,0,0-0.1,0c0,0,0,0,0-0.1v-4c0,0,0,0,0,0h-1.2c0,0,0,0-0.1,0c0,0,0,0,0-0.1V2.6c0,0,0,0,0-0.1
		c0,0,0,0,0.1,0L29,2.5C29,2.5,29,2.5,29,2.5z"/>
	<path class="st0" d="M33.3,7.4l-0.9-2c0,0,0,0,0,0h-0.7c0,0,0,0,0,0v1.9c0,0,0,0,0,0.1c0,0,0,0-0.1,0h-0.8c0,0,0,0-0.1,0
		c0,0,0,0,0-0.1V2.6c0,0,0,0,0-0.1c0,0,0,0,0.1,0h2c0.3,0,0.6,0.1,0.8,0.2c0.2,0.1,0.4,0.3,0.5,0.5c0.1,0.2,0.2,0.5,0.2,0.8
		c0,0.3-0.1,0.6-0.2,0.8c-0.2,0.2-0.4,0.4-0.7,0.5c0,0,0,0,0,0l1,2c0,0,0,0,0,0c0,0,0,0.1-0.1,0.1L33.3,7.4
		C33.3,7.5,33.3,7.4,33.3,7.4z M31.6,3.4v1.2c0,0,0,0,0,0h0.9c0.2,0,0.4-0.1,0.5-0.2c0.1-0.1,0.2-0.3,0.2-0.5c0-0.2-0.1-0.3-0.2-0.5
		c-0.1-0.1-0.3-0.2-0.5-0.2L31.6,3.4C31.6,3.4,31.6,3.4,31.6,3.4z"/>
	<path class="st0" d="M36.7,7.3c-0.3-0.2-0.5-0.4-0.7-0.6c-0.2-0.3-0.2-0.6-0.2-0.9V4.2c0-0.3,0.1-0.7,0.2-0.9s0.4-0.5,0.7-0.6
		c0.3-0.1,0.6-0.2,1-0.2c0.4,0,0.7,0.1,1,0.2C39,2.8,39.2,3,39.3,3.3c0.2,0.3,0.2,0.6,0.2,0.9v1.5c0,0.4-0.1,0.7-0.2,0.9
		C39.2,7,39,7.2,38.7,7.3c-0.3,0.1-0.6,0.2-1,0.2C37.3,7.5,37,7.5,36.7,7.3z M38.3,6.4c0.2-0.2,0.2-0.4,0.2-0.7V4.2
		c0-0.3-0.1-0.5-0.2-0.7c-0.2-0.2-0.4-0.3-0.6-0.3c-0.3,0-0.5,0.1-0.6,0.3c-0.2,0.2-0.2,0.4-0.2,0.7v1.6c0,0.3,0.1,0.5,0.2,0.7
		c0.2,0.2,0.4,0.2,0.6,0.2C38,6.7,38.2,6.6,38.3,6.4z"/>
	<path class="st0" d="M44.2,2.7c0.2,0.1,0.4,0.3,0.5,0.5c0.1,0.2,0.2,0.5,0.2,0.8c0,0.3-0.1,0.6-0.2,0.8c-0.1,0.2-0.3,0.4-0.6,0.5
		c-0.2,0.1-0.5,0.2-0.8,0.2h-1c0,0,0,0,0,0v1.8c0,0,0,0,0,0.1c0,0,0,0-0.1,0h-0.8c0,0,0,0-0.1,0c0,0,0,0,0-0.1V2.6c0,0,0,0,0-0.1
		c0,0,0,0,0.1,0h2C43.7,2.5,43.9,2.6,44.2,2.7z M43.7,4.6c0.1-0.1,0.2-0.3,0.2-0.5c0-0.2-0.1-0.4-0.2-0.5c-0.1-0.1-0.3-0.2-0.5-0.2
		h-0.9c0,0,0,0,0,0v1.3c0,0,0,0,0,0h0.9C43.4,4.7,43.6,4.7,43.7,4.6z"/>
	<path class="st0" d="M47.6,7.4C47.5,7.4,47.5,7.4,47.6,7.4l0-1.8c0,0,0,0,0,0l-1.5-2.9c0,0,0,0,0,0c0,0,0-0.1,0.1-0.1H47
		c0,0,0.1,0,0.1,0.1L48,4.5c0,0,0,0,0,0l0.9-1.9c0,0,0.1-0.1,0.1-0.1h0.9c0,0,0.1,0,0.1,0c0,0,0,0,0,0.1l-1.5,2.9c0,0,0,0,0,0v1.8
		c0,0,0,0,0,0.1c0,0,0,0-0.1,0L47.6,7.4C47.6,7.5,47.6,7.4,47.6,7.4z"/>
</g>
<g>
	<circle class="st1" cx="5" cy="5" r="5"/>
	<path class="st0" d="M9.6,5.3C9.6,5.3,9.6,5.3,9.6,5.3c0-0.1-0.1-0.2-0.1-0.3v0c-0.6-1.7-1-2.5-1-3.2c0-0.1,0-0.3,0-0.4
		C8.2,1.1,7.8,0.8,7.4,0.6C6.7,0.2,5.9,0,5,0C2.8,0,1,1.4,0.3,3.3C0.2,3.5,0.2,3.7,0.1,3.9c0.1,0.3,0.2,0.5,0.2,0.7c0,0,0,0,0,0
		c0,0.1,0.1,0.2,0.1,0.3v0c0.6,1.7,1,2.5,1,3.2c0,0.1,0,0.3,0,0.4c0.3,0.3,0.7,0.6,1.1,0.8C3.3,9.8,4.1,10,5,10c2.2,0,4-1.4,4.7-3.3
		c0.1-0.2,0.1-0.4,0.2-0.6C9.8,5.8,9.7,5.6,9.6,5.3z M5,9.6c-0.9,0-1.7-0.3-2.4-0.7c0-0.2,0-0.4,0-0.6C2.5,7.1,1.9,6.9,1,5v0
		C0.8,4.7,0.7,4.3,0.5,3.9c0.1-0.2,0.1-0.4,0.2-0.6C1.1,4.1,1.5,4.6,1.8,5h0C2,5.3,2.3,5.5,2.5,5.6c0.7,0.5,1,0.9,1,1.8
		c0,2.9,1.4,1.2,3.5,1.7C6.4,9.5,5.7,9.6,5,9.6z M8.4,8.2C7.5,7.4,6.8,7.4,6.1,7.3c-1,0.1-1.6,0-1.6-1.5c0-0.4,0-0.6-0.1-0.8h0
		C4.1,3.8,2.8,5,1.1,2.5C1.2,2.3,1.4,2,1.6,1.8c0.8,0.7,1.6,0.8,2.3,0.8c1-0.1,1.6,0,1.6,1.5c0,0.4,0,0.6,0.1,0.8h0
		c0.4,1.2,1.7,0,3.4,2.5C8.8,7.7,8.6,8,8.4,8.2z M9.3,6.7C8.9,5.9,8.5,5.4,8.2,5h0C8,4.7,7.7,4.5,7.5,4.4c-0.7-0.5-1-0.9-1-1.8
		c0-2.9-1.4-1.2-3.5-1.7c0.6-0.3,1.3-0.5,2-0.5c0.9,0,1.7,0.3,2.4,0.7c0,0.2,0,0.4,0,0.6C7.5,2.9,8.1,3.1,9,5v0
		c0.2,0.3,0.3,0.7,0.5,1.1C9.5,6.3,9.4,6.5,9.3,6.7z"/>
</g>
</svg>
