<?xml version="1.0" encoding="utf-8"?>
<!-- Generator: Adobe Illustrator 26.0.0, SVG Export Plug-In . SVG Version: 6.00 Build 0)  -->
<svg version="1.1" id="Capa_1" xmlns="http://www.w3.org/2000/svg" xmlns:xlink="http://www.w3.org/1999/xlink" x="0px" y="0px"
	 viewBox="0 0 70 20" style="enable-background:new 0 0 70 20;" xml:space="preserve">
<style type="text/css">
	.st0{fill:#0D1113;}
</style>
<g>
	<path class="st0" d="M6.8,6.7c0,0-0.1,0-0.1,0H2c0,0-0.1,0-0.1,0.1V9c0,0,0,0.1,0.1,0.1h3c0,0,0.1,0,0.1,0c0,0,0,0.1,0,0.1v1.4
		c0,0,0,0.1,0,0.1c0,0-0.1,0-0.1,0H2c0,0-0.1,0-0.1,0.1v2.3c0,0,0,0.1,0.1,0.1h4.6c0,0,0.1,0,0.1,0c0,0,0,0.1,0,0.1v1.4
		c0,0,0,0.1,0,0.1c0,0-0.1,0-0.1,0H0.2c0,0-0.1,0-0.1,0c0,0,0-0.1,0-0.1V5.2c0,0,0-0.1,0-0.1c0,0,0.1,0,0.1,0h6.5c0,0,0.1,0,0.1,0
		c0,0,0,0.1,0,0.1v1.4C6.8,6.7,6.8,6.7,6.8,6.7z"/>
	<path class="st0" d="M15.8,5.1c0,0,0.1,0,0.1,0h1.6c0,0,0.1,0,0.1,0c0,0,0,0.1,0,0.1v9.5c0,0,0,0.1,0,0.1c0,0-0.1,0-0.1,0H16
		c-0.1,0-0.2,0-0.2-0.1l-3.6-6c0,0,0,0-0.1,0c0,0,0,0,0,0.1l0,5.9c0,0,0,0.1,0,0.1c0,0-0.1,0-0.1,0h-1.6c0,0-0.1,0-0.1,0
		c0,0,0-0.1,0-0.1V5.2c0,0,0-0.1,0-0.1c0,0,0.1,0,0.1,0h1.6c0.1,0,0.2,0,0.2,0.1l3.6,6c0,0,0,0,0.1,0c0,0,0,0,0-0.1l0-5.9
		C15.8,5.2,15.8,5.2,15.8,5.1z"/>
	<path class="st0" d="M28.3,5.1c0,0,0,0.1,0,0.1v1.4c0,0,0,0.1,0,0.1c0,0-0.1,0-0.1,0h-2.5c0,0-0.1,0-0.1,0.1v7.9c0,0,0,0.1,0,0.1
		c0,0-0.1,0-0.1,0h-1.6c0,0-0.1,0-0.1,0c0,0,0-0.1,0-0.1V6.9c0,0,0-0.1-0.1-0.1h-2.4c0,0-0.1,0-0.1,0c0,0,0-0.1,0-0.1V5.2
		c0,0,0-0.1,0-0.1c0,0,0.1,0,0.1,0h7.1C28.2,5.1,28.3,5.1,28.3,5.1z"/>
	<path class="st0" d="M36.7,14.8L35,10.9c0,0,0-0.1-0.1-0.1h-1.3c0,0-0.1,0-0.1,0.1v3.8c0,0,0,0.1,0,0.1c0,0-0.1,0-0.1,0h-1.6
		c0,0-0.1,0-0.1,0c0,0,0-0.1,0-0.1V5.2c0,0,0-0.1,0-0.1c0,0,0.1,0,0.1,0h4c0.6,0,1.1,0.1,1.6,0.4c0.5,0.2,0.8,0.6,1.1,1
		c0.2,0.4,0.4,1,0.4,1.6c0,0.6-0.2,1.2-0.5,1.6c-0.3,0.5-0.8,0.8-1.3,1c0,0-0.1,0.1,0,0.1l1.9,4c0,0,0,0.1,0,0.1
		c0,0.1-0.1,0.1-0.2,0.1h-1.7C36.8,14.9,36.8,14.8,36.7,14.8z M33.5,6.8v2.4c0,0,0,0.1,0.1,0.1h1.8c0.4,0,0.7-0.1,1-0.4
		c0.2-0.2,0.4-0.5,0.4-0.9s-0.1-0.7-0.4-0.9c-0.2-0.2-0.6-0.4-1-0.4L33.5,6.8C33.6,6.8,33.5,6.8,33.5,6.8z"/>
	<path class="st0" d="M43.7,14.6c-0.6-0.3-1-0.7-1.3-1.3c-0.3-0.5-0.5-1.2-0.5-1.9v-3c0-0.7,0.2-1.3,0.5-1.8s0.7-0.9,1.3-1.2
		C44.2,5.1,44.9,5,45.6,5c0.7,0,1.4,0.1,1.9,0.4c0.6,0.3,1,0.7,1.3,1.2c0.3,0.5,0.5,1.1,0.5,1.8v3c0,0.7-0.2,1.3-0.5,1.9
		c-0.3,0.5-0.7,1-1.3,1.3C47,14.9,46.3,15,45.6,15C44.9,15,44.2,14.9,43.7,14.6z M46.9,12.8c0.3-0.3,0.5-0.8,0.5-1.3V8.5
		c0-0.5-0.2-1-0.5-1.3c-0.3-0.3-0.7-0.5-1.3-0.5c-0.5,0-0.9,0.2-1.2,0.5c-0.3,0.3-0.5,0.8-0.5,1.3v3.1c0,0.5,0.2,1,0.5,1.3
		c0.3,0.3,0.7,0.5,1.2,0.5C46.1,13.3,46.5,13.2,46.9,12.8z"/>
	<path class="st0" d="M58.5,5.4c0.5,0.3,0.8,0.6,1.1,1.1c0.3,0.5,0.4,1,0.4,1.6c0,0.6-0.1,1.1-0.4,1.6c-0.3,0.4-0.6,0.8-1.1,1
		c-0.5,0.2-1,0.4-1.7,0.4h-2c0,0-0.1,0-0.1,0.1v3.6c0,0,0,0.1,0,0.1c0,0-0.1,0-0.1,0h-1.6c0,0-0.1,0-0.1,0c0,0,0-0.1,0-0.1V5.2
		c0,0,0-0.1,0-0.1c0,0,0.1,0,0.1,0h3.9C57.4,5.1,58,5.2,58.5,5.4z M57.6,9.1c0.3-0.2,0.4-0.6,0.4-1c0-0.4-0.1-0.7-0.4-1
		c-0.3-0.3-0.6-0.4-1-0.4h-1.8c0,0-0.1,0-0.1,0.1v2.6c0,0,0,0.1,0.1,0.1h1.8C57,9.5,57.3,9.4,57.6,9.1z"/>
	<path class="st0" d="M65.1,14.8c0,0,0-0.1,0-0.1v-3.5c0,0,0-0.1,0-0.1l-2.9-5.8c0,0,0-0.1,0-0.1c0-0.1,0.1-0.1,0.2-0.1h1.8
		c0.1,0,0.2,0,0.2,0.1L66,8.9c0,0.1,0.1,0.1,0.1,0l1.8-3.7c0-0.1,0.1-0.1,0.2-0.1h1.8c0.1,0,0.1,0,0.1,0c0,0,0,0.1,0,0.1l-2.9,5.8
		c0,0,0,0,0,0.1v3.5c0,0,0,0.1,0,0.1c0,0-0.1,0-0.1,0h-1.6C65.2,14.9,65.2,14.9,65.1,14.8z"/>
</g>
</svg>
