<?xml version="1.0" encoding="utf-8"?>
<!-- Generator: Adobe Illustrator 26.0.0, SVG Export Plug-In . SVG Version: 6.00 Build 0)  -->
<svg version="1.1" id="Capa_1" xmlns="http://www.w3.org/2000/svg" xmlns:xlink="http://www.w3.org/1999/xlink" x="0px" y="0px"
	 viewBox="0 0 305.8 105.3" style="enable-background:new 0 0 305.8 105.3;" xml:space="preserve">
<style type="text/css">
	.st0{fill:none;}
	.st1{fill:#DA9B2F;}
	.st2{fill:#FFFFFF;}
</style>
<g>
	<g>
		<circle class="st0" cx="52.7" cy="52.7" r="52.7"/>
		<path class="st1" d="M101.6,56.3C101.6,56.2,101.6,56.2,101.6,56.3c-0.4-1.3-0.8-2.4-1.2-3.6v0c-6.1-17.9-10.6-26-10.6-33.4
			c0-1.4,0-2.7-0.1-4c-3.5-3.5-7.5-6.5-11.9-8.9C70.4,2.3,61.8,0,52.7,0C29.8,0,10.3,14.6,3,35c-0.7,2-1.3,4.1-1.8,6.3
			c0.8,2.8,1.7,5.3,2.5,7.8c0,0,0,0,0,0c0.4,1.2,0.8,2.4,1.2,3.6v0C11,70.6,15.5,78.7,15.5,86c0,1.4,0,2.7,0.1,4
			c3.5,3.5,7.5,6.5,11.9,8.9c7.5,4.1,16.1,6.4,25.2,6.4c22.9,0,42.4-14.6,49.6-35c0.7-2,1.3-4.1,1.8-6.3
			C103.2,61.2,102.4,58.7,101.6,56.3z M52.7,101.6c-9.5,0-18.3-2.7-25.8-7.4c-0.2-1.9-0.2-4-0.2-6.4c0-12.6-6.8-15.1-16.3-35.2v0
			c-1.6-3.4-3.3-7.3-5.1-11.9c0.6-2.2,1.3-4.3,2.1-6.4c4.1,8.7,8.1,14.2,11.7,18.3h0c2.5,2.8,4.8,4.9,6.9,6.8
			c6.9,5.6,10.7,9.3,10.7,19.4c0,30.1,15.1,12.8,37.2,18C67.4,99.9,60.2,101.6,52.7,101.6z M88.3,86.1c-8.9-7.9-17-8.5-23.8-8.8
			C53.7,78,47.7,77.5,47.7,61.5c0-3.9-0.3-6.7-1-8.8h0C43,40.5,29.1,52.6,11.4,26.4c1.6-2.6,3.5-5,5.6-7.2c8.9,7.9,17,8.5,23.8,8.8
			c10.9-0.7,16.9-0.2,16.9,15.8c0,3.9,0.3,6.7,1,8.8h0c3.7,12.2,17.6,0.1,35.4,26.2C92.3,81.5,90.4,83.9,88.3,86.1z M98,71
			c-4.1-8.7-8.1-14.2-11.7-18.3h0c-2.5-2.8-4.8-4.9-6.9-6.8c-6.9-5.6-10.7-9.3-10.7-19.4c0-30.1-15.1-12.8-37.2-18
			c6.4-3.1,13.6-4.8,21.1-4.8c9.5,0,18.3,2.7,25.8,7.4c0.2,1.9,0.2,4,0.2,6.4c0,12.6,6.8,15.1,16.3,35.2v0c1.6,3.4,3.3,7.3,5.1,11.9
			C99.6,66.7,98.9,68.9,98,71z"/>
	</g>
	<g>
		<path class="st1" d="M146.5,64.1V72c0,1.1-0.3,2-1,2.7c-0.7,0.7-1.6,1.1-2.8,1.2l-0.4,0c-1.3,0-2.3-0.3-3-1
			c-0.8-0.7-1.1-1.6-1.1-2.8v-7.9h1.5v7.8c0,0.8,0.2,1.5,0.7,1.9c0.5,0.5,1.1,0.7,2,0.7c0.9,0,1.5-0.2,2-0.7
			c0.5-0.5,0.7-1.1,0.7-1.9v-7.8H146.5z M166.9,75.7h-1.5l-5.8-8.9v8.9H158V64.1h1.5l5.8,8.9v-8.9h1.5V75.7z M178.6,75.7V64.1h3.8
			c1.3,0,2.2,0.3,2.8,0.8s0.9,1.3,0.9,2.3c0,0.5-0.2,1-0.5,1.4c-0.3,0.4-0.7,0.7-1.3,1c0.6,0.2,1.1,0.5,1.5,1s0.5,1.1,0.5,1.7
			c0,1-0.3,1.9-1,2.4c-0.7,0.6-1.6,0.9-2.8,0.9H178.6z M180.2,69h2.3c0.7,0,1.2-0.2,1.6-0.5s0.6-0.8,0.6-1.4c0-0.6-0.2-1.1-0.6-1.4
			s-0.9-0.4-1.7-0.4h-2.3V69z M180.2,70.3v4.2h2.5c0.7,0,1.3-0.2,1.7-0.6s0.6-0.9,0.6-1.5c0-1.4-0.8-2.1-2.3-2.1H180.2z M206.7,70.3
			c0,1.1-0.2,2.1-0.6,3s-0.9,1.5-1.6,1.9c-0.7,0.4-1.5,0.7-2.4,0.7c-0.9,0-1.7-0.2-2.4-0.7c-0.7-0.4-1.2-1.1-1.6-1.9
			c-0.4-0.8-0.6-1.8-0.6-2.9v-0.8c0-1.1,0.2-2.1,0.6-2.9c0.4-0.9,0.9-1.5,1.6-2s1.5-0.7,2.4-0.7c0.9,0,1.7,0.2,2.4,0.7
			c0.7,0.4,1.2,1.1,1.6,1.9s0.6,1.8,0.6,3V70.3z M205.2,69.5c0-1.4-0.3-2.4-0.8-3.2c-0.6-0.7-1.3-1.1-2.3-1.1c-1,0-1.7,0.4-2.3,1.1
			s-0.8,1.7-0.9,3.1v0.8c0,1.3,0.3,2.4,0.8,3.1s1.3,1.1,2.3,1.1c1,0,1.7-0.4,2.3-1.1c0.5-0.7,0.8-1.7,0.8-3.1V69.5z M226.2,64.1V72
			c0,1.1-0.3,2-1,2.7c-0.7,0.7-1.6,1.1-2.8,1.2l-0.4,0c-1.3,0-2.3-0.3-3-1c-0.8-0.7-1.1-1.6-1.1-2.8v-7.9h1.5v7.8
			c0,0.8,0.2,1.5,0.7,1.9c0.5,0.5,1.1,0.7,2,0.7c0.9,0,1.5-0.2,2-0.7c0.5-0.5,0.7-1.1,0.7-1.9v-7.8H226.2z M246.5,75.7H245l-5.8-8.9
			v8.9h-1.5V64.1h1.5l5.8,8.9v-8.9h1.5V75.7z M258.3,75.7V64.1h3.3c1,0,1.9,0.2,2.7,0.7c0.8,0.4,1.4,1.1,1.8,1.9
			c0.4,0.8,0.6,1.8,0.6,2.8v0.7c0,1.1-0.2,2-0.6,2.9c-0.4,0.8-1,1.4-1.8,1.9s-1.7,0.7-2.7,0.7H258.3z M259.8,65.4v9.1h1.6
			c1.2,0,2.1-0.4,2.7-1.1c0.7-0.7,1-1.8,1-3.1v-0.7c0-1.3-0.3-2.3-0.9-3.1c-0.6-0.7-1.5-1.1-2.6-1.1H259.8z M284.5,70.3h-5v4.1h5.8
			v1.2H278V64.1h7.3v1.2h-5.7v3.7h5V70.3z M296.3,75.7V64.1h3.3c1,0,1.9,0.2,2.7,0.7c0.8,0.4,1.4,1.1,1.8,1.9
			c0.4,0.8,0.6,1.8,0.6,2.8v0.7c0,1.1-0.2,2-0.6,2.9c-0.4,0.8-1,1.4-1.8,1.9c-0.8,0.4-1.7,0.7-2.7,0.7H296.3z M297.8,65.4v9.1h1.6
			c1.2,0,2.1-0.4,2.7-1.1c0.7-0.7,1-1.8,1-3.1v-0.7c0-1.3-0.3-2.3-0.9-3.1c-0.6-0.7-1.5-1.1-2.6-1.1H297.8z"/>
		<g>
			<path class="st2" d="M154.4,35.5c-0.1,0.1-0.2,0.1-0.3,0.1h-11c-0.1,0-0.2,0.1-0.2,0.2V41c0,0.1,0.1,0.2,0.2,0.2h7.2
				c0.1,0,0.2,0,0.3,0.1c0.1,0.1,0.1,0.2,0.1,0.3v3.3c0,0.1,0,0.2-0.1,0.3c-0.1,0.1-0.2,0.1-0.3,0.1h-7.2c-0.1,0-0.2,0.1-0.2,0.2
				v5.4c0,0.1,0.1,0.2,0.2,0.2h11c0.1,0,0.2,0,0.3,0.1c0.1,0.1,0.1,0.2,0.1,0.3v3.3c0,0.1,0,0.2-0.1,0.3c-0.1,0.1-0.2,0.1-0.3,0.1
				h-15.5c-0.1,0-0.2,0-0.3-0.1c-0.1-0.1-0.1-0.2-0.1-0.3V32c0-0.1,0-0.2,0.1-0.3c0.1-0.1,0.2-0.1,0.3-0.1h15.5c0.1,0,0.2,0,0.3,0.1
				c0.1,0.1,0.1,0.2,0.1,0.3v3.3C154.5,35.4,154.4,35.5,154.4,35.5z"/>
			<path class="st2" d="M176.1,31.7c0.1-0.1,0.2-0.1,0.3-0.1h3.9c0.1,0,0.2,0,0.3,0.1c0.1,0.1,0.1,0.2,0.1,0.3v22.7
				c0,0.1,0,0.2-0.1,0.3c-0.1,0.1-0.2,0.1-0.3,0.1h-3.8c-0.2,0-0.4-0.1-0.5-0.3l-8.7-14.4c0-0.1-0.1-0.1-0.1-0.1
				c0,0-0.1,0.1-0.1,0.2l0.1,14.2c0,0.1,0,0.2-0.1,0.3c-0.1,0.1-0.2,0.1-0.3,0.1h-3.9c-0.1,0-0.2,0-0.3-0.1
				c-0.1-0.1-0.1-0.2-0.1-0.3V32c0-0.1,0-0.2,0.1-0.3c0.1-0.1,0.2-0.1,0.3-0.1h3.8c0.2,0,0.4,0.1,0.5,0.3l8.7,14.3
				c0,0.1,0.1,0.1,0.1,0.1c0,0,0.1-0.1,0.1-0.2l0-14.1C176,31.9,176,31.8,176.1,31.7z"/>
			<path class="st2" d="M206,31.7c0.1,0.1,0.1,0.2,0.1,0.3v3.3c0,0.1,0,0.2-0.1,0.3c-0.1,0.1-0.2,0.1-0.3,0.1h-6
				c-0.1,0-0.2,0.1-0.2,0.2v18.8c0,0.1,0,0.2-0.1,0.3c-0.1,0.1-0.2,0.1-0.3,0.1h-3.9c-0.1,0-0.2,0-0.3-0.1c-0.1-0.1-0.1-0.2-0.1-0.3
				V35.9c0-0.1-0.1-0.2-0.2-0.2h-5.8c-0.1,0-0.2,0-0.3-0.1c-0.1-0.1-0.1-0.2-0.1-0.3V32c0-0.1,0-0.2,0.1-0.3
				c0.1-0.1,0.2-0.1,0.3-0.1h16.9C205.8,31.6,205.9,31.6,206,31.7z"/>
			<path class="st2" d="M226.2,54.8l-4.2-9.3c0-0.1-0.1-0.1-0.2-0.1h-3.1c-0.1,0-0.2,0.1-0.2,0.2v9.2c0,0.1,0,0.2-0.1,0.3
				c-0.1,0.1-0.2,0.1-0.3,0.1h-3.9c-0.1,0-0.2,0-0.3-0.1c-0.1-0.1-0.1-0.2-0.1-0.3V32c0-0.1,0-0.2,0.1-0.3c0.1-0.1,0.2-0.1,0.3-0.1
				h9.6c1.4,0,2.7,0.3,3.8,0.9c1.1,0.6,1.9,1.4,2.5,2.5c0.6,1.1,0.9,2.3,0.9,3.7c0,1.5-0.4,2.8-1.1,3.9c-0.8,1.1-1.8,1.9-3.2,2.3
				c-0.1,0-0.1,0.1-0.1,0.2l4.6,9.5c0,0.1,0.1,0.2,0.1,0.2c0,0.2-0.1,0.3-0.4,0.3h-4.1C226.4,55.1,226.3,55,226.2,54.8z M218.5,35.8
				v5.7c0,0.1,0.1,0.2,0.2,0.2h4.4c0.9,0,1.7-0.3,2.3-0.8c0.6-0.6,0.9-1.3,0.9-2.2c0-0.9-0.3-1.6-0.9-2.2c-0.6-0.6-1.4-0.9-2.3-0.9
				h-4.4C218.6,35.7,218.5,35.7,218.5,35.8z"/>
			<path class="st2" d="M242.8,54.4c-1.3-0.7-2.4-1.7-3.1-3c-0.7-1.3-1.1-2.8-1.1-4.4v-7.2c0-1.7,0.4-3.1,1.1-4.4
				c0.7-1.3,1.8-2.3,3.1-3c1.3-0.7,2.9-1.1,4.6-1.1c1.8,0,3.3,0.4,4.6,1.1c1.3,0.7,2.4,1.7,3.1,3c0.7,1.3,1.1,2.7,1.1,4.4v7.2
				c0,1.7-0.4,3.2-1.1,4.5c-0.7,1.3-1.8,2.3-3.1,3c-1.3,0.7-2.9,1.1-4.6,1.1C245.7,55.5,244.1,55.1,242.8,54.4z M250.4,50.2
				c0.8-0.8,1.1-1.8,1.1-3.1v-7.4c0-1.3-0.4-2.3-1.1-3.1c-0.7-0.8-1.7-1.2-3-1.2c-1.2,0-2.2,0.4-3,1.2c-0.7,0.8-1.1,1.8-1.1,3.1v7.4
				c0,1.3,0.4,2.3,1.1,3.1c0.7,0.8,1.7,1.2,3,1.2C248.6,51.4,249.6,51,250.4,50.2z"/>
			<path class="st2" d="M278.2,32.5c1.1,0.6,2,1.5,2.6,2.6c0.6,1.1,0.9,2.4,0.9,3.8c0,1.4-0.3,2.6-1,3.7c-0.6,1.1-1.5,1.9-2.7,2.5
				c-1.2,0.6-2.5,0.9-4,0.9h-4.8c-0.1,0-0.2,0.1-0.2,0.2v8.6c0,0.1,0,0.2-0.1,0.3c-0.1,0.1-0.2,0.1-0.3,0.1h-3.9
				c-0.1,0-0.2,0-0.3-0.1c-0.1-0.1-0.1-0.2-0.1-0.3V32c0-0.1,0-0.2,0.1-0.3c0.1-0.1,0.2-0.1,0.3-0.1h9.5
				C275.8,31.6,277.1,31.9,278.2,32.5z M276.1,41.3c0.6-0.6,0.9-1.4,0.9-2.3c0-1-0.3-1.8-0.9-2.4c-0.6-0.6-1.5-0.9-2.5-0.9h-4.3
				c-0.1,0-0.2,0.1-0.2,0.2V42c0,0.1,0.1,0.2,0.2,0.2h4.3C274.6,42.2,275.4,41.9,276.1,41.3z"/>
			<path class="st2" d="M294.2,54.9c-0.1-0.1-0.1-0.2-0.1-0.3v-8.5c0-0.1,0-0.2,0-0.2l-6.9-13.9c0-0.1-0.1-0.2-0.1-0.2
				c0-0.2,0.1-0.3,0.4-0.3h4.2c0.2,0,0.4,0.1,0.5,0.3l4.2,8.9c0.1,0.1,0.1,0.1,0.2,0l4.2-8.9c0.1-0.2,0.2-0.3,0.5-0.3h4.3
				c0.2,0,0.3,0,0.3,0.1c0.1,0.1,0.1,0.2,0,0.4l-7,13.9c0,0,0,0.1,0,0.2v8.5c0,0.1,0,0.2-0.1,0.3c-0.1,0.1-0.2,0.1-0.3,0.1h-3.9
				C294.4,55,294.3,55,294.2,54.9z"/>
		</g>
	</g>
</g>
</svg>
