<?xml version="1.0" encoding="utf-8"?>
<!-- Generator: Adobe Illustrator 26.0.0, SVG Export Plug-In . SVG Version: 6.00 Build 0)  -->
<svg version="1.1" id="Capa_1" xmlns="http://www.w3.org/2000/svg" xmlns:xlink="http://www.w3.org/1999/xlink" x="0px" y="0px"
	 viewBox="0 0 20 20" style="enable-background:new 0 0 20 20;" xml:space="preserve">
<style type="text/css">
	.st0{fill:none;}
	.st1{fill:#0D1113;}
</style>
<g>
	<circle class="st0" cx="10" cy="10" r="10"/>
	<path class="st1" d="M19.3,10.7L19.3,10.7c-0.1-0.2-0.2-0.5-0.2-0.7l0,0c-1.2-3.4-2-4.9-2-6.3c0-0.3,0-0.5,0-0.8
		c-0.7-0.7-1.4-1.2-2.3-1.7C13.4,0.4,11.7,0,10,0C5.7,0,2,2.8,0.6,6.7C0.4,7,0.3,7.4,0.2,7.8c0.2,0.5,0.3,1,0.5,1.5l0,0
		C0.8,9.6,0.9,9.8,0.9,10l0,0c1.2,3.4,2,4.9,2,6.3c0,0.3,0,0.5,0,0.8c0.7,0.7,1.4,1.2,2.3,1.7C6.6,19.6,8.3,20,10,20
		c4.3,0,8-2.8,9.4-6.7c0.1-0.4,0.3-0.8,0.3-1.2C19.6,11.6,19.5,11.1,19.3,10.7z M10,19.3c-1.8,0-3.5-0.5-4.9-1.4c0-0.4,0-0.8,0-1.2
		c0-2.4-1.3-2.9-3.1-6.7l0,0C1.6,9.4,1.3,8.6,1,7.7c0.1-0.4,0.2-0.8,0.4-1.2C2.2,8.2,2.9,9.2,3.6,10l0,0c0.5,0.5,0.9,0.9,1.3,1.3
		c1.3,1.1,2,1.8,2,3.7c0,5.7,2.9,2.4,7.1,3.4C12.8,19,11.4,19.3,10,19.3z M16.8,16.4c-1.7-1.5-3.2-1.6-4.5-1.7c-2.1,0.1-3.2,0-3.2-3
		C9.1,11,9,10.4,8.9,10l0,0c-0.7-2.3-3.3,0-6.7-5c0.3-0.5,0.7-0.9,1.1-1.4C5,5.1,6.5,5.2,7.8,5.3c2.1-0.1,3.2,0,3.2,3
		c0,0.7,0.1,1.3,0.2,1.7l0,0c0.7,2.3,3.3,0,6.7,5C17.5,15.5,17.2,15.9,16.8,16.4z M18.6,13.5c-0.8-1.6-1.5-2.7-2.2-3.5l0,0
		c-0.5-0.5-0.9-0.9-1.3-1.3c-1.3-1.1-2-1.8-2-3.7c0-5.7-2.9-2.4-7.1-3.4C7.2,1,8.6,0.7,10,0.7c1.8,0,3.5,0.5,4.9,1.4
		c0,0.4,0,0.8,0,1.2c0,2.4,1.3,2.9,3.1,6.7l0,0c0.3,0.6,0.6,1.4,1,2.3C18.9,12.7,18.8,13.1,18.6,13.5z"/>
</g>
</svg>
